<svg width="960" height="217" viewBox="0 0 960 217" fill="none" xmlns="http://www.w3.org/2000/svg">
<path d="M330.896 207L323.506 196.893C322.921 196.094 322.444 195.374 322.074 194.731H322.016C322.074 195.763 322.103 196.922 322.103 198.207V207H316.261V186.055H322.22L329.304 195.666C329.392 195.792 329.499 195.943 329.625 196.119C329.752 196.294 329.879 196.474 330.005 196.659C330.132 196.844 330.249 197.024 330.356 197.199C330.473 197.375 330.56 197.53 330.619 197.667H330.677C330.619 197.238 330.589 196.498 330.589 195.447V186.055H336.432V207H330.896ZM364.496 207V186.055H377.539V190.992H370.806V194.044H377.13V198.981H370.806V202.063H378.021V207H364.496ZM428.783 207H422.078L419.172 195.067C419.084 194.726 418.987 193.879 418.88 192.525H418.821C418.675 193.723 418.534 194.57 418.398 195.067L415.257 207H408.159L403.164 186.055H410.087L411.84 198.382C411.869 198.538 411.913 198.991 411.971 199.741L412.059 200.953H412.146C412.166 200.7 412.224 200.272 412.322 199.668C412.419 199.054 412.512 198.597 412.599 198.295L415.827 186.055H422.707L425.394 198.47L425.584 199.712L425.73 200.924H425.788L425.832 200.413L426.022 198.382L427.848 186.055H434.07L428.783 207ZM503.343 199.726V207H497.034V199.814L490.578 186.055H497.822L500.086 192.642C500.242 193.09 500.349 193.48 500.408 193.811C500.476 194.142 500.549 194.478 500.627 194.819H500.685C500.812 193.933 500.953 193.246 501.109 192.759L503.343 186.055H510.018L503.343 199.726ZM555.945 196.469C555.945 198.572 555.493 200.457 554.587 202.122C553.681 203.777 552.416 205.067 550.789 205.992C549.163 206.907 547.342 207.365 545.327 207.365C543.36 207.365 541.568 206.922 539.952 206.036C538.345 205.14 537.094 203.889 536.198 202.282C535.302 200.666 534.854 198.84 534.854 196.805C534.854 194.673 535.307 192.754 536.213 191.05C537.118 189.346 538.389 188.032 540.025 187.107C541.661 186.172 543.521 185.704 545.604 185.704C547.61 185.704 549.402 186.152 550.979 187.048C552.566 187.934 553.789 189.205 554.645 190.86C555.512 192.506 555.945 194.376 555.945 196.469ZM549.256 196.644C549.256 194.921 548.925 193.562 548.263 192.569C547.6 191.576 546.695 191.079 545.546 191.079C544.29 191.079 543.311 191.557 542.61 192.511C541.909 193.465 541.558 194.814 541.558 196.557C541.558 198.261 541.904 199.59 542.595 200.544C543.297 201.498 544.246 201.976 545.444 201.976C546.174 201.976 546.831 201.761 547.415 201.333C548 200.904 548.452 200.291 548.774 199.493C549.095 198.694 549.256 197.745 549.256 196.644ZM593.722 207L592.159 202.487C591.858 201.601 591.463 200.904 590.976 200.398C590.499 199.892 589.978 199.639 589.413 199.639H589.165V207H582.855V186.055H591.239C594.17 186.055 596.332 186.537 597.724 187.501C599.126 188.455 599.828 189.892 599.828 191.81C599.828 193.251 599.419 194.458 598.601 195.432C597.792 196.406 596.585 197.112 594.978 197.55V197.608C595.864 197.881 596.6 198.324 597.184 198.937C597.778 199.551 598.309 200.461 598.776 201.669L600.835 207H593.722ZM593.123 192.701C593.123 192 592.909 191.445 592.481 191.036C592.052 190.627 591.38 190.422 590.465 190.422H589.165V195.213H590.304C591.152 195.213 591.833 194.974 592.349 194.497C592.865 194.02 593.123 193.421 593.123 192.701ZM638.788 207L634.143 198.149C633.831 197.448 633.646 196.966 633.588 196.703H633.515V207H627.205V186.055H633.515V196.016H633.588C633.773 195.49 633.982 195.004 634.216 194.556L638.393 186.055H645.872L639.927 196.046L646.441 207H638.788Z" fill="#242429"/>
<path d="M310.852 148.097L299.762 121.48C296.78 114.271 292.59 110.666 287.191 110.666H280.182V148.097H265V55.7838H294.527C304.09 55.7838 311.509 57.9818 316.783 62.3776C322.058 66.7735 324.696 72.8911 324.696 80.7304C324.859 86.6337 322.977 92.4095 319.374 97.0611C315.592 101.686 310.398 104.913 304.605 106.237V106.49C306.872 107.427 308.86 108.941 310.373 110.886C312.261 112.993 313.801 115.394 314.933 117.996L328.908 148.097H310.852ZM308.751 82.1591C308.844 80.2638 308.499 78.3727 307.743 76.6352C306.988 74.8978 305.842 73.3614 304.398 72.1475C301.539 69.759 297.491 68.5685 292.252 68.5758H280.182V97.7424H292.045C296.448 97.889 300.736 96.3143 304.017 93.3466C305.557 91.9359 306.778 90.206 307.595 88.2751C308.412 86.3443 308.806 84.2581 308.751 82.1591Z" fill="#242429"/>
<path d="M347.263 119.523C347.561 125.538 349.375 130.114 352.705 133.25C356.035 136.385 360.777 137.949 366.93 137.942C370.551 137.959 374.149 137.361 377.574 136.173C380.755 135.108 383.766 133.579 386.509 131.634V144.195C383.43 146.071 380.065 147.419 376.551 148.185C372.218 149.247 367.775 149.775 363.316 149.756C353.398 149.756 345.722 146.76 340.287 140.766C334.853 134.773 332.132 126.458 332.124 115.82C331.98 109.419 333.369 103.078 336.173 97.3353C338.709 92.2434 342.607 87.9715 347.427 85.0048C352.175 82.0752 357.643 80.552 363.208 80.609C372.219 80.609 379.224 83.3967 384.223 88.9721C389.223 94.5476 391.719 102.277 391.711 112.16V119.523H347.263ZM377.04 108.325C377.04 103.087 375.829 99.0936 373.405 96.3462C370.982 93.5988 367.583 92.2251 363.208 92.2251C361.264 92.2096 359.338 92.5989 357.549 93.3684C355.761 94.138 354.149 95.2714 352.814 96.6979C349.781 99.8756 347.836 103.95 347.263 108.325H377.04Z" fill="#242429"/>
<path d="M441.549 148.097V139.02H441.288C439.301 142.376 436.463 145.136 433.068 147.016C429.672 148.896 425.841 149.827 421.97 149.713C415.549 149.713 410.488 147.951 406.788 144.427C403.087 140.902 401.241 136.14 401.248 130.14C401.248 123.964 403.062 119.007 406.69 115.271C410.317 111.534 415.629 109.216 422.623 108.314L441.691 105.677C441.691 96.6946 437.57 92.2072 429.327 92.2145C425.361 92.211 421.424 92.8874 417.682 94.2146C414.081 95.4615 410.692 97.2631 407.637 99.5556V86.4559C410.932 84.5729 414.492 83.2056 418.193 82.4007C422.333 81.2723 426.596 80.6668 430.884 80.5984C439.264 80.5984 445.569 82.7963 449.799 87.1922C454.029 91.5881 456.126 97.9694 456.09 106.336V148.097H441.549ZM415.723 128.59C415.676 129.884 415.927 131.172 416.458 132.351C416.989 133.53 417.784 134.567 418.781 135.382C420.995 137.134 423.753 138.033 426.563 137.921C428.592 137.988 430.612 137.618 432.489 136.836C434.366 136.053 436.056 134.876 437.446 133.382C438.866 131.853 439.973 130.057 440.705 128.096C441.437 126.135 441.78 124.047 441.713 121.953V116.029L427.619 117.941C423.156 118.59 420.065 119.7 418.346 121.293C416.626 122.887 415.723 125.326 415.723 128.634V128.59Z" fill="#242429"/>
<path d="M517.861 145.372C512.84 148.303 506.654 149.768 499.304 149.768C493.446 149.87 487.66 148.451 482.5 145.647C477.646 142.931 473.674 138.855 471.062 133.91C468.28 128.689 466.864 122.837 466.948 116.909C466.816 110.325 468.272 103.807 471.193 97.9187C473.933 92.5083 478.222 88.0551 483.502 85.1377C489.244 82.0168 495.69 80.4529 502.21 80.599C505.104 80.6108 507.989 80.9238 510.819 81.5331C513.288 81.9696 515.676 82.7811 517.904 83.9398V98.0396C513.58 94.6913 508.301 92.8412 502.852 92.7646C500.075 92.6597 497.307 93.1601 494.738 94.2315C492.169 95.3029 489.859 96.9203 487.964 98.9737C484.155 103.113 482.25 108.641 482.25 115.557C482.25 122.473 484.064 127.862 487.692 131.723C491.32 135.621 496.275 137.573 502.559 137.58C505.162 137.52 507.738 137.018 510.177 136.097C512.934 135.139 515.535 133.773 517.893 132.042L517.861 145.372Z" fill="#242429"/>
<path d="M568.759 147.493C567.253 148.215 565.657 148.726 564.014 149.009C561.844 149.494 559.629 149.744 557.407 149.757C544.608 149.757 538.209 142.797 538.209 128.876V94.1818H527.326V82.1591H538.209V67.0043L553.01 62.4326V82.2141H568.759V94.1928H553.01V126.118C553.01 130.287 553.736 133.239 555.187 134.976C556.638 136.712 558.975 137.58 562.196 137.58C563.304 137.549 564.403 137.364 565.461 137.031C566.619 136.727 567.722 136.237 568.726 135.58L568.759 147.493Z" fill="#242429"/>
<path d="M695.001 96.6875C693.84 95.9655 692.567 95.4455 691.235 95.1489C689.68 94.701 688.074 94.4609 686.457 94.4346C684.407 94.3967 682.381 94.8802 680.565 95.8404C678.748 96.8006 677.201 98.2068 676.064 99.9294C673.43 103.593 672.113 108.402 672.113 114.359V148.097H657.377V82.1591H672.113V95.017H672.407C673.566 91.0257 675.832 87.4525 678.937 84.7197C681.768 82.307 685.365 81.004 689.069 81.0491C691.086 80.9589 693.1 81.2649 695.001 81.9503V96.6875Z" fill="#242429"/>
<path d="M623.955 94.3356L635.927 115.216L623.955 136.096H600.077L588.105 115.216L600.077 94.3356H623.955ZM625.185 81.148H598.847C596.93 81.1459 595.047 81.6524 593.385 82.6167C591.723 83.5811 590.341 84.9695 589.378 86.6428L576.22 109.666C575.265 111.337 574.762 113.232 574.762 115.161C574.762 117.09 575.265 118.985 576.22 120.656L589.378 143.734C590.343 145.406 591.725 146.793 593.387 147.757C595.048 148.722 596.931 149.229 598.847 149.229H625.185C627.101 149.229 628.984 148.722 630.645 147.757C632.307 146.793 633.689 145.406 634.653 143.734L647.812 120.656C648.767 118.985 649.27 117.09 649.27 115.161C649.27 113.232 648.767 111.337 647.812 109.666L634.653 86.6428C633.69 84.9695 632.309 83.5811 630.647 82.6167C628.985 81.6524 627.102 81.1459 625.185 81.148V81.148Z" fill="url(#paint0_linear)"/>
<path d="M306.484 15.0206L305.751 17.0091H305.721C305.546 16.3449 305.32 15.6948 305.046 15.0647L301.289 5.61392H297.621V20.6559H300.049V11.3886C300.049 10.8016 300.049 10.1412 300.049 9.31937C300.049 8.9158 299.991 8.58563 299.976 8.37284H300.035C300.12 8.80914 300.237 9.23839 300.387 9.65691L304.9 20.6632H306.609L311.085 9.59085C311.204 9.20252 311.302 8.8082 311.379 8.40952H311.437C311.379 9.51749 311.342 10.5081 311.32 11.1097V20.6485H313.91V5.61392H310.337L306.484 15.0206ZM316.361 9.82566H318.856V20.6119H316.361V9.82566ZM317.645 5.27638C317.246 5.27116 316.86 5.42417 316.574 5.70197C316.436 5.83839 316.327 6.00072 316.252 6.17955C316.178 6.35838 316.14 6.55016 316.14 6.74388C316.14 6.93761 316.178 7.12943 316.252 7.30826C316.327 7.48709 316.436 7.64942 316.574 7.78585C316.715 7.92278 316.883 8.02973 317.067 8.10033C317.251 8.17092 317.448 8.20372 317.645 8.19675C318.041 8.19767 318.423 8.05119 318.716 7.78585C318.859 7.65406 318.972 7.49394 319.049 7.31579C319.126 7.13763 319.165 6.94534 319.164 6.75123C319.163 6.55531 319.123 6.36155 319.046 6.18134C318.969 6.00113 318.857 5.83813 318.716 5.70197C318.576 5.56239 318.408 5.45275 318.224 5.37961C318.04 5.30646 317.843 5.27133 317.645 5.27638V5.27638ZM327.859 9.73027C327.391 9.63187 326.914 9.58028 326.435 9.57621C325.364 9.54734 324.304 9.80037 323.361 10.31C322.502 10.7963 321.801 11.5197 321.343 12.3938C320.847 13.3551 320.595 14.4234 320.609 15.5049C320.599 16.4769 320.834 17.4358 321.292 18.2932C321.724 19.1083 322.388 19.7772 323.199 20.2156C324.052 20.6797 325.01 20.9148 325.98 20.898C327.045 20.9251 328.097 20.6721 329.033 20.1643V20.1643V17.8309L328.937 17.9116C328.566 18.1884 328.152 18.404 327.712 18.55C327.324 18.6934 326.915 18.7727 326.501 18.7848C326.062 18.8138 325.622 18.7453 325.212 18.5842C324.802 18.4231 324.433 18.1734 324.131 17.8529C323.516 17.149 323.2 16.2328 323.251 15.2995C323.194 14.3404 323.515 13.3973 324.146 12.6726C324.452 12.3532 324.822 12.1019 325.231 11.935C325.641 11.7681 326.081 11.6894 326.523 11.7041C327.393 11.7169 328.237 12.0017 328.937 12.5185L329.033 12.5993V10.1265C328.647 9.95452 328.243 9.82413 327.829 9.73761L327.859 9.73027ZM336.18 9.66426C335.554 9.65707 334.946 9.87007 334.463 10.2659C334.022 10.666 333.688 11.1707 333.494 11.7334V11.7334V9.84035H330.94V20.6265H333.472V15.116C333.428 14.3103 333.647 13.5121 334.096 12.8414C334.273 12.5692 334.515 12.346 334.801 12.1921C335.087 12.0383 335.407 11.9588 335.732 11.9609C335.979 11.9788 336.224 12.0131 336.466 12.0636C336.679 12.1114 336.883 12.1958 337.067 12.3131L337.17 12.3938V9.86234H337.111C336.812 9.72975 336.484 9.67185 336.157 9.69359L336.18 9.66426ZM343.04 9.63488C342.273 9.59225 341.506 9.70842 340.787 9.97609C340.067 10.2438 339.41 10.6572 338.858 11.1904C338.343 11.7639 337.948 12.4345 337.696 13.1628C337.444 13.8911 337.34 14.6625 337.39 15.4316C337.354 16.1669 337.466 16.9019 337.718 17.5936C337.97 18.2853 338.357 18.9198 338.858 19.4599C339.983 20.432 341.425 20.9589 342.911 20.9414C344.398 20.9238 345.827 20.3629 346.929 19.3645C347.952 18.2163 348.479 16.7103 348.397 15.1748C348.48 13.6846 347.968 12.2224 346.973 11.1097C346.458 10.602 345.841 10.2087 345.163 9.95585C344.486 9.70295 343.762 9.59608 343.04 9.64222V9.63488ZM345.065 17.9263C344.808 18.233 344.482 18.474 344.113 18.6297C343.744 18.7853 343.344 18.8511 342.945 18.8215C342.531 18.849 342.116 18.779 341.733 18.6172C341.351 18.4553 341.012 18.2061 340.743 17.8896C340.181 17.1477 339.905 16.2283 339.966 15.2995C339.91 14.3553 340.185 13.4211 340.743 12.6579C341.009 12.3469 341.342 12.1007 341.717 11.9379C342.092 11.7751 342.5 11.7002 342.908 11.7188C343.303 11.6973 343.698 11.7669 344.061 11.9221C344.425 12.0773 344.749 12.314 345.007 12.6139C345.566 13.3709 345.842 14.301 345.784 15.2408C345.834 16.1914 345.576 17.1328 345.051 17.9263H345.065ZM354.024 14.3456C353.476 14.1554 352.957 13.8886 352.484 13.5531C352.383 13.4422 352.305 13.3125 352.255 13.1715C352.204 13.0305 352.182 12.8809 352.19 12.7313C352.186 12.5774 352.222 12.4251 352.294 12.289C352.366 12.1529 352.472 12.0374 352.601 11.9536C352.931 11.7445 353.318 11.642 353.709 11.66C354.151 11.6679 354.59 11.7345 355.015 11.8582C355.421 11.9635 355.804 12.1426 356.145 12.3865L356.24 12.4599V10.0164H356.182C355.81 9.87364 355.427 9.76316 355.037 9.68624C354.625 9.61245 354.208 9.5732 353.79 9.56886C352.718 9.51716 351.662 9.84733 350.811 10.5007C350.444 10.7769 350.149 11.1368 349.95 11.5504C349.75 11.964 349.653 12.4192 349.666 12.8781C349.642 13.3203 349.723 13.7619 349.901 14.1672C350.08 14.5726 350.351 14.9302 350.693 15.2114C351.171 15.5704 351.694 15.864 352.249 16.0846C352.694 16.2656 353.13 16.4688 353.555 16.6936C353.77 16.8214 353.967 16.9768 354.142 17.1559C354.249 17.3379 354.302 17.5465 354.296 17.7575C354.296 18.4913 353.753 18.8288 352.638 18.8288C352.162 18.8236 351.691 18.7392 351.243 18.5793C350.736 18.4038 350.257 18.1567 349.82 17.8456L349.725 17.7649V20.289H349.783C350.221 20.4754 350.676 20.6204 351.141 20.7219C351.624 20.8207 352.115 20.8796 352.608 20.898C353.731 20.9692 354.843 20.636 355.741 19.9588C356.123 19.6768 356.43 19.3065 356.637 18.8797C356.844 18.4528 356.945 17.9822 356.93 17.5081C356.955 16.8362 356.733 16.1785 356.306 15.659C355.628 15.0881 354.859 14.6343 354.032 14.3162L354.024 14.3456ZM363.571 9.61289C362.804 9.57026 362.037 9.68643 361.317 9.9541C360.597 10.2218 359.941 10.6352 359.388 11.1684C358.357 12.332 357.829 13.8572 357.921 15.4095C357.885 16.1448 357.996 16.8799 358.248 17.5716C358.5 18.2634 358.888 18.8978 359.388 19.4379C360.513 20.41 361.955 20.9369 363.442 20.9193C364.929 20.9018 366.358 20.3409 367.459 19.3425C368.482 18.1943 369.01 16.6882 368.927 15.1527C369.01 13.6626 368.498 12.2004 367.503 11.0877C366.988 10.58 366.372 10.1868 365.694 9.93386C365.016 9.68096 364.292 9.57409 363.571 9.62023V9.61289ZM365.581 17.9043C365.323 18.21 364.997 18.4505 364.628 18.606C364.26 18.7616 363.859 18.8278 363.46 18.7995C363.046 18.8311 362.63 18.7631 362.247 18.601C361.864 18.4388 361.525 18.1874 361.259 17.8676C360.692 17.1282 360.413 16.2075 360.474 15.2774C360.42 14.3324 360.698 13.3982 361.259 12.6359C361.523 12.3247 361.854 12.0781 362.229 11.9152C362.603 11.7524 363.009 11.6776 363.416 11.6967C363.811 11.678 364.205 11.7488 364.568 11.9039C364.932 12.0589 365.255 12.2941 365.515 12.5919C366.075 13.3489 366.35 14.279 366.293 15.2188C366.356 16.1709 366.098 17.1167 365.559 17.9043H365.581ZM382.435 11.9315V9.84769H379.882V6.64119H379.809L377.394 7.37495H377.336V9.80367H373.594V8.4462C373.561 7.93491 373.714 7.42904 374.027 7.02271C374.178 6.86427 374.362 6.74084 374.566 6.66099C374.77 6.58114 374.989 6.5468 375.208 6.56045C375.598 6.56474 375.982 6.6497 376.338 6.80994L376.433 6.86865V4.66739H376.375C375.916 4.52539 375.438 4.45847 374.958 4.46926C374.256 4.46659 373.563 4.62737 372.933 4.93888C372.348 5.25289 371.868 5.73276 371.554 6.31834C371.212 6.93018 371.038 7.62094 371.047 8.32147V9.78898H369.279V11.8582H371.047V20.5752H373.594V11.9095H377.409V17.4567C377.409 19.7314 378.48 20.8833 380.623 20.8833C380.98 20.8733 381.336 20.834 381.687 20.766C381.963 20.7139 382.232 20.6276 382.487 20.5091V20.5091V18.4253L382.391 18.506C382.229 18.6102 382.05 18.6871 381.863 18.7334C381.699 18.7845 381.528 18.8117 381.357 18.8141C381.153 18.8353 380.947 18.8092 380.755 18.7379C380.563 18.6667 380.39 18.5522 380.249 18.4032C379.974 17.9988 379.849 17.5106 379.897 17.0238V11.9242L382.435 11.9315Z" fill="#737374"/>
<path d="M265 0.565063H276.931V12.4959H265V0.565063Z" fill="#EF5125"/>
<path d="M278.208 0.565063H290.102V12.4959H278.208V0.565063Z" fill="#7FBA42"/>
<path d="M265 13.7366H276.931V25.6674H265V13.7366Z" fill="#329FD9"/>
<path d="M278.208 13.7365H290.102V25.6673H278.208V13.7365Z" fill="#FCB713"/>
<defs>
<linearGradient id="paint0_linear" x1="587.948" y1="149.098" x2="635.207" y2="90.3462" gradientUnits="userSpaceOnUse">
<stop stop-color="#00A4EF"/>
<stop offset="1" stop-color="#50E6FF"/>
</linearGradient>
</defs>
</svg>
