<svg xmlns="http://www.w3.org/2000/svg" aria-hidden="true" class="aspect-square w-4 h-4 flex-shrink-0" viewBox="0 0 300 300">
    <g transform="translate(0, 300) scale(0.1,-0.1)" fill="#0069FF" stroke="none">
        <path d="M1188 2995 c-3 -3 -57 -10 -120 -15 -536 -44 -907 -357 -1023 -864 -28 -126 -39 -297 -39 -616 0 -418 16 -570 81 -760 105 -309 344 -548 653 -653 190 -65 342 -81 760 -81 418 0 570 16 760 81 309 105 548 344 653 653 65 190 81 342 81 760 0 492 -29 684 -139 900 -171 335 -489 538 -915 582 -114 12 -742 23 -752 13z m1010 -653 c58 -31 117 -92 144 -149 l23 -48 0 -645 0 -645 -23 -48 c-28 -60 -89 -121 -149 -149 l-48 -23 -640 0 -640 0 -41 22 c-90 48 -140 108 -168 203 -24 80 -24 1200 0 1280 33 110 108 188 214 221 14 4 309 7 655 6 l630 -2 43 -23z"/>
        <path d="M873 1715 c-51 -51 -93 -98 -93 -103 0 -17 274 -276 333 -315 71 -48 173 -94 235 -108 76 -18 229 -22 281 -9 183 47 275 104 464 289 l148 145 -98 98 c-54 54 -101 98 -104 98 -4 0 -54 -47 -112 -104 -176 -174 -237 -216 -354 -240 -58 -13 -78 -13 -133 -1 -109 23 -162 58 -316 208 -78 75 -145 137 -150 137 -5 -1 -51 -43 -101 -95z"/>
    </g>
</svg>