<svg xmlns="http://www.w3.org/2000/svg" viewBox="0 0 802.43 728.79"><defs><style>.cls-1,.cls-5{fill:#fff;}.cls-2{fill:#d6fffd;}.cls-3{opacity:0.25;}.cls-4{fill:#00acee;}.cls-5{opacity:0.59;}.cls-6{opacity:0.49;}.cls-7{fill:#737373;}.cls-8{fill:#262729;}.cls-9{fill:#f79a9a;}.cls-10{fill:#ffc0c0;}.cls-11{fill:#bc3c3c;}.cls-12{fill:#ef4343;}</style></defs><title>RACCOON AZURE SF</title><g id="layer_12" data-name="layer 12"><path d="M807.07,265.93a24.73,24.73,0,0,0-7.47-16c-5.94-5.69-14.4-8.25-25.19-7.61-6.7.4-39.21,3.11-70.47,6.11A364.48,364.48,0,0,0,33.58,534.83C37.87,545,42.71,555.09,48,564.94L25,625.4a10,10,0,0,0,4.4,12.24L42,644.79l.57.29a10.14,10.14,0,0,0,1,.41,9.09,9.09,0,0,0,.92.29,10,10,0,0,0,2.48.31H63.52a10,10,0,0,0,9.56-7.06l5-16.22h8.49c2.89,3.54,5.88,7.07,8.93,10.54a10,10,0,0,0,3,3.43c4.39,4.87,8.81,9.53,13.13,13.85a364.09,364.09,0,0,0,515.33,0c7.73-7.73,15.21-15.91,22.25-24.33a17.08,17.08,0,0,0,6.21-6.8,16.14,16.14,0,0,0,7.85-4.7c3.25-3.49,4-8.1,4-12a362.82,362.82,0,0,0,66.32-202.1c10.69-2.91,13.52-4.47,14.54-5,7.22-4,11.49-12.81,12.27-14.54v0l0,0c3.17-7,31.23-68.92,41.66-92.32C806.56,278.81,808.1,271.73,807.07,265.93Z" transform="translate(-4.94 -28.6)"/></g><g id="background_colour" data-name="background colour"><path class="cls-1" d="M14.64,389.53a5.4,5.4,0,0,1,.29-1.3c1-2.87,4.11-5.45,6.23-7.54,2.61-2.57,6.17-3.56,9.76-3.94,5.84-.63,11.25-1.4,17.08.08a25.72,25.72,0,0,1,12.65,8.28c3.42,3.87,6.79,7.25,8.59,12.16a144.83,144.83,0,0,1,5.72,20c2.18.3,4.29-.68,6.37-1.39,4.55-1.54,11.14-2.61,15.42.28a13,13,0,0,1,2.61,2.6c2.14,2.59,4.41,5.54,4.17,8.89a4,4,0,0,0,.06,1.81c.81,2,10.49-1,12.63-1.08a24.71,24.71,0,0,1,11.53,2c3.59,1.69,8.11,2.38,11.71,4.34,3.24,1.76,4.91,5.38,8.14,7.27s5.06,5,7.43,8a18.57,18.57,0,0,1,3.56,8.14c.24,1.71-.57,3.36-.37,4.89,7.31-2.13,14.85-5.24,21.84,0,8.88,6.71,9.38,27,9.38,27,13.11-5.62,28.53-9,42-2.87a19.15,19.15,0,0,1,9.14,8c1.08,2,2.14,4.64,4.42,4.81,1.52.11,2.83-1,3.85-2.15,1.6-1.78,2.89-4.31,4.77-5.78s5-2.37,7.3-3.13c9.68-3.2,18.69-3.45,27.8,1.22A50.67,50.67,0,0,1,304,501.7s.9-13.83,39.65-14.52S480,563.59,532.57,533.3s118.15-67.48,133.62-70.39,24.63,15.17,24.63,15.17,0-25.55,13.6-29.19,12.73,2.22,12.73,2.22S678,713.67,399.5,746c-103.3,12-184.2-24.29-242.16-67.23C51.86,600.57,20.23,478.1,17.18,433c-.7-10.4-1.36-20.81-1.82-31.22-.12-2.65-.08-5.35-.31-8A23.92,23.92,0,0,1,14.64,389.53Z" transform="translate(-4.94 -28.6)"/><path class="cls-1" d="M284.45,143.67s-10.12-14.67-30.12-10-14.91,28.11-14.91,28.11-15.76-5.44-23.76,0S211,181,211,181s-11.38.63-11.69,7,15,7.68,15,7.68,22.68,3.33,35,0,18.32-10.5,18.32-10.5,7.58,6.94,16.79,7.39,17.88-7.39,17.88-7.39,13.88,7.11,19.33-3c9.51-17.64-7.13-14.74-7.17-14.77s-1.75-19.13-9.75-23.47c-12.92-7-21.88-2.16-21.88-2.16" transform="translate(-4.94 -28.6)"/><path class="cls-1" d="M122,304.25s4.75,14,22,14.25,26-16.83,26-16.83,6.11,11.08,29.3,8.71,28.45-17.21,28.45-17.21,19.75,8.58,16.75-11.92-23.5-2.46-23.5-2.46-.75-20-16-23.79-22.75,11-22.75,11-2.75-48.53-37.75-33.28-25.25,51.92-25.25,51.92-15.68-2.25-17.5,6.83c-4,20,22.78,17.36,22.78,17.36" transform="translate(-4.94 -28.6)"/><circle class="cls-2" cx="364.39" cy="364.39" r="354.39"/><path class="cls-1" d="M14.64,389.53a5.4,5.4,0,0,1,.29-1.3c1-2.87,4.11-5.45,6.23-7.54,2.61-2.57,6.17-3.56,9.76-3.94,5.84-.63,11.25-1.4,17.08.08a25.72,25.72,0,0,1,12.65,8.28c3.42,3.87,6.79,7.25,8.59,12.16a144.83,144.83,0,0,1,5.72,20c2.18.3,4.29-.68,6.37-1.39,4.55-1.54,11.14-2.61,15.42.28a13,13,0,0,1,2.61,2.6c2.14,2.59,4.41,5.54,4.17,8.89a4,4,0,0,0,.06,1.81c.81,2,10.49-1,12.63-1.08a24.71,24.71,0,0,1,11.53,2c3.59,1.69,8.11,2.38,11.71,4.34,3.24,1.76,4.91,5.38,8.14,7.27s5.06,5,7.43,8a18.57,18.57,0,0,1,3.56,8.14c.24,1.71-.57,3.36-.37,4.89,7.31-2.13,14.85-5.24,21.84,0,8.88,6.71,9.38,27,9.38,27,13.11-5.62,28.53-9,42-2.87a19.15,19.15,0,0,1,9.14,8c1.08,2,2.14,4.64,4.42,4.81,1.52.11,2.83-1,3.85-2.15,1.6-1.78,2.89-4.31,4.77-5.78s5-2.37,7.3-3.13c9.68-3.2,18.69-3.45,27.8,1.22A50.67,50.67,0,0,1,304,501.7s.9-13.83,39.65-14.52S480,563.59,532.57,533.3s118.15-67.48,133.62-70.39,24.63,15.17,24.63,15.17,0-25.55,13.6-29.19,12.73,2.22,12.73,2.22S678,713.67,399.5,746c-103.3,12-184.2-24.29-242.16-67.23C51.86,600.57,20.23,478.1,17.18,433c-.7-10.4-1.36-20.81-1.82-31.22-.12-2.65-.08-5.35-.31-8A23.92,23.92,0,0,1,14.64,389.53Z" transform="translate(-4.94 -28.6)"/><path class="cls-1" d="M284.45,143.67s-10.12-14.67-30.12-10-14.91,28.11-14.91,28.11-15.76-5.44-23.76,0S211,181,211,181s-11.38.63-11.69,7,15,7.68,15,7.68,22.68,3.33,35,0,18.32-10.5,18.32-10.5,7.58,6.94,16.79,7.39,17.88-7.39,17.88-7.39,13.88,7.11,19.33-3c9.51-17.64-7.13-14.74-7.17-14.77s-1.75-19.13-9.75-23.47c-12.92-7-21.88-2.16-21.88-2.16" transform="translate(-4.94 -28.6)"/><path class="cls-1" d="M122,304.25s4.75,14,22,14.25,26-16.83,26-16.83,6.11,11.08,29.3,8.71,28.45-17.21,28.45-17.21,19.75,8.58,16.75-11.92-23.5-2.46-23.5-2.46-.75-20-16-23.79-22.75,11-22.75,11-2.75-48.53-37.75-33.28-25.25,51.92-25.25,51.92-15.68-2.25-17.5,6.83c-4,20,22.78,17.36,22.78,17.36" transform="translate(-4.94 -28.6)"/></g><g id="background_shadows" data-name="background shadows"><path class="cls-3" d="M86.62,501.94s-7.08-23,10.5-25.5c22.75-3.25,22.5,22.83,22.5,22.83s3.21-5.3,10.21-3.3S134,509.44,134,509.44s-.18-2.92-6.78-6.54-8.6-.46-8.6-.46-3.05-14.17-16.27-14.17C93.36,488.27,86.62,501.94,86.62,501.94Z" transform="translate(-4.94 -28.6)"/><path class="cls-3" d="M135.5,638s12.5-13,24-4.5,6.07,22.5,6.07,22.5,5.72-6.73,13.26-4.33c7.33,2.33.67,11.92.67,11.92a5.94,5.94,0,0,0-3.66-5.25A22.8,22.8,0,0,0,165.5,657s1.5-9-9.5-15.33S135.5,638,135.5,638Z" transform="translate(-4.94 -28.6)"/><path class="cls-3" d="M266.83,695.17s-1.81-42.85,32.33-40.5C325.83,656.5,322,685.83,322,685.83s.33-9.5,10.67-9,11.17,17.33,11.17,17.33-4.33-7.5-12.17-7.33S315.83,696,315.83,696s-5.15-23.83-21.83-22.33C276,675.29,266.83,695.17,266.83,695.17Z" transform="translate(-4.94 -28.6)"/><path class="cls-3" d="M401.57,614.94s-1.36-18.65,21.22-22.19c25.5-4,65.46,15,68,11.5S502.16,585.81,525.5,588c16,1.5,18.94,21.67,18.94,21.67A39.08,39.08,0,0,1,562,593c12.3-5.75,24.8,1.57,24.8,1.57l11,11.67,3.75-2.74s10.75,13,14,14.75,15.25,4.5,15.25,4.5L627.25,634s-4.75-6.5-12.25-4.25-11.25,10.85-11.25,10.85S600.25,627.83,587,631s-20.75,19-20.75,19-8.75-9.5-15.75-11.75-9.13,1.32-9.13,1.32-5.37-11.07-19.12-7.82S504,650,504,650s-3.53-4.42-8-3.33-4.25,6-4.25,6-8.25-12.81-15.25-12.06-16.25,9.9-16.25,9.9-9.25-12-13.25-14-1.75-2.75-1.75-2.75,2-18.5-13-23.75S401.57,614.94,401.57,614.94Z" transform="translate(-4.94 -28.6)"/><path class="cls-3" d="M129,506c-4.76,1.54-11,1.45-15.61,5-2.49,1.93-3,3.68-4.45,6.19-2.06,3.46-1,2.65-4.95,4.19-5.33,2.06-14.17,3.16-14.6,10.23-.48,8,12.88,3.19,16.58,7.9,1,1.32,3,6.6,3.86,7.13,4.3,2.79,8.55-3.36,13.81,1.85,3.6,3.56,4.47,8.9,6.67,13.06,5.51-6.12,15.3-9.73,22.7-5.17,5.2,3.21,2.95,6.65,10.39,6.26,4.86-.26,15.38-3.32,20.13-.66,3.25,1.82,4.43,7.86,9.39,8.5.66-9.53,2.23-8.3,11.6-7.47,3.07.27,3.1-.12,5.58,1a37.4,37.4,0,0,1,6.77,4.51c1.32-4.08,7.75-5.39,11.19-3.42,2.57,1.47,3.08,4.95,5.37,6.84.77-7.16,2.45-9.73,9.13-9.91,9.31-.25,12.12.68,18.33,6,1.87-5,10.19-9.65,11-2,1.67-7.42,11-4.8,17.08-4.45,1.44,7.47,5.29,3.77,10.22,2,6.54-2.37,10.95-1.56,15.84,2.63,6,5.17,5.63,5.35,12.53,1.4,4.76-2.72,11.71-7,17.39-6.6,4.34.28,8.17,1.15,12.84,1,10.91-.35,26.6-.87,36.09-6.52-13.13.29-25.87-3.1-38.92-4.36-11.41-1.11-23-.91-34.42-1.56-21.34-1.23-45.2,1.44-65.9-4.08,7.3,0,15.19-2.79,22.14-4.77,4.47-1.27,16.91-2.25,10.43-8.12s-24.91-2.59-33-2.59c-9.56,0-19.62,1-29.11-.1-4.6-.52-9-2.19-13.53-2.9-10.67-1.69-22.09-2.55-32.56-5-7.48-1.72-16.76-3.76-23.72-7-6.1-2.85-14.28-6.89-21.23-2.53" transform="translate(-4.94 -28.6)"/><path class="cls-3" d="M116,640.5c.45,6,6.13,9.39,11,6.52,5.42-3.2,7.15-6.8,14-8,12.23-2.15,16.24,12.08,25.1,17.39,4.85,2.9,10.81-1.44,15.47,4.52,3.13-1.43,5-7.27,9.13-9.53,4-2.16,8.51-3.53,12.84-1.57-.94-3.31,2.23-5.15,5.29-4.27,2.81.81,4.14,4.38,5.47,6.43,3.83-5.09,11.26-6.39,17.33-5.43,5.88.93,9.71,5.6,14.85,7.36,1.65-5.59,6.74-5,10.55-2.45,3-6.82,7.65-20.86,17.07-9.58,2,2.43,1.14,6.11,3.9,7.71,1.28-4.13,4.07-2,5.86.44,2.14-7.16,5.64-16.42,15-16.11,8.56.28,7.95,7.35,10.51,13,3.55-4.31,4.27-4.68,9.4-3.48,6.48,1.51,1,1.78,6.79-.5,8.58-3.38,10.79,3.41,16.24,8.1,1.36-4.81,4.75-11.4,11.18-9.58,2.19.62,4.07,4.26,6,5.65,3-3.6,4.12-5.27,8.53-7.26,2.73-1.23,7.81-1.56,10.07-3,4.21-2.6,3-3.1,1-8.81-1.7-4.85-1.19-6.09-5.52-7.58s-11.21.29-15.9,0c-5.28-.36-10.1-1.68-15.2-2.91-6.78-1.63-9.06-3.86-14.63-7.15-7-4.15-8.36,1.51-14.28,5-2,1.21-4.35.17-6.3,3.07-3.53-4.45-7.34-9.09-11.11-1.79-7.19-5.18-10.7-12.07-20.72-13.06-8.51-.84-13.69,2.74-19.46,8.61-7.08-18.61-26.37-10.46-35.56.44-4.48,5.31-11.15,6.93-12.52,13.93-2-4-5.08-7.69-9.81-8.45-6.86-1.1-5.47,2.88-10.16,4.41-4.37,1.42-9.46-2.11-14.25-1.72-6.29.51-8.4,4.84-13.36,7.35-7-6.69-20.81-19.82-26.63-5.48-7.81-4.15-18.49-1.28-19.19,8l-.54-1.32" transform="translate(-4.94 -28.6)"/></g><g id="Background"><path d="M74.76,420.06a2,2,0,0,1-2-1.94c0-.33-1.37-33.6-25.55-39.18-24-5.54-30.31,11.12-30.37,11.29a2,2,0,1,1-3.76-1.36c.07-.2,7.63-20.15,35-13.83,27.19,6.27,28.6,41.45,28.65,42.95a2,2,0,0,1-1.94,2.06Z" transform="translate(-4.94 -28.6)"/><path d="M104.19,433.29a2,2,0,0,1-2-1.87c0-.56-1.06-13.91-12.52-15.06-12.23-1.23-25.81,11.93-25.94,12.06a2,2,0,0,1-2.8-2.85c.61-.6,15-14.6,29.14-13.19,11.88,1.19,15.74,12.81,16.11,18.78a2,2,0,0,1-1.87,2.12Z" transform="translate(-4.94 -28.6)"/><path d="M69.75,465.88a2,2,0,0,1-1.7-3c1-1.54,23.58-37.71,50.19-36.2,33.59,1.92,44.94,35.08,45,35.41a2,2,0,0,1-3.8,1.26c-.1-.31-10.64-30.91-41.48-32.67-24.26-1.42-46.34,33.95-46.56,34.3A2,2,0,0,1,69.75,465.88Z" transform="translate(-4.94 -28.6)"/><path d="M306,504a2,2,0,0,1-1.81-1.15c-.3-.62-7.59-15.41-28.47-15.41s-28.8,14.84-29.13,15.47a2,2,0,0,1-3.73-.45c-.15-.6-3.84-14.8-24-16.46s-25.59,6-25.64,6.07a2,2,0,0,1-3.69-1.25c0-.25,2.13-24.71-12.37-27.35-15.36-2.79-27.19,7.58-27.31,7.69a2,2,0,1,1-2.67-3c.54-.48,13.43-11.78,30.69-8.64,13.69,2.49,15.68,18.66,15.78,26.89,4-2.62,11.76-5.56,25.52-4.42,16.54,1.36,23.44,10.36,26.1,15.67,3.92-5.14,13.27-14.24,30.46-14.24,23.5,0,31.75,17,32.09,17.71A2,2,0,0,1,306,504Z" transform="translate(-4.94 -28.6)"/><path d="M108.5,517.5a2,2,0,0,1-.35,0,2,2,0,0,1-1.62-2.32c.1-.54,2.45-13.22,12.08-15.11a16.19,16.19,0,0,1,17.14,7.72,2,2,0,1,1-3.5,1.94c-.17-.3-4.31-7.42-12.86-5.73-7,1.37-8.9,11.78-8.92,11.89A2,2,0,0,1,108.5,517.5Z" transform="translate(-4.94 -28.6)"/><path d="M86.83,505.67h-.05a2,2,0,0,1-1.95-2.05c0-.14.55-14.51,16-17.09,12.63-2.11,18,9.18,19,15.44a2,2,0,0,1-3.94.67h0c-.1-.58-2.57-14.14-14.41-12.16-12.23,2-12.65,12.79-12.66,13.25A2,2,0,0,1,86.83,505.67Z" transform="translate(-4.94 -28.6)"/><path d="M179.5,665.58a2,2,0,0,1-2-1.57s-1.1-4.5-4-5.25c-1.23-.32-4.37,1.29-6.07,2.52a2,2,0,0,1-3.12-1.15c0-.15-3.93-15.62-16.49-19.56-12.25-3.84-19.65,5.87-20,6.28a2,2,0,0,1-3.22-2.37c.09-.12,9.35-12.43,24.38-7.72,11.45,3.59,16.58,14.7,18.38,19.82,2-1.1,4.83-2.28,7.11-1.69,5.29,1.38,6.8,8,6.87,8.25a2,2,0,0,1-2,2.43Z" transform="translate(-4.94 -28.6)"/><path d="M191.5,650.58a2,2,0,0,1-1.65-3.12c.15-.21,3.62-5.26,9.62-5.87,10.28-1,13.46,5.27,13.59,5.53a2,2,0,0,1-3.6,1.74c-.07-.14-2.22-4.05-9.58-3.3-4.11.42-6.69,4.1-6.72,4.14A2,2,0,0,1,191.5,650.58Z" transform="translate(-4.94 -28.6)"/><path d="M266,703.67a2,2,0,0,1-1.91-2.59c.37-1.22,9.39-29.78,30.35-28.75,14.39.73,20.09,13.8,22.27,22.2A17.25,17.25,0,0,1,330.9,686c4.08-.21,7.26.93,9.47,3.4,4.17,4.66,3,12.28,2.94,12.6a2,2,0,0,1-3.95-.64c0-.06.92-6.08-2-9.3-1.38-1.53-3.43-2.2-6.28-2.06-11,.57-13.11,11.92-13.13,12a2,2,0,0,1-4-.2c0-.25-2.11-24.59-19.77-25.49-17.91-.89-26.24,25.65-26.32,25.92A2,2,0,0,1,266,703.67Z" transform="translate(-4.94 -28.6)"/><path d="M359.33,715.67a2,2,0,0,1-2-1.91c0-.58-.53-5.84-7.08-6.09-7-.25-9.26,6.34-9.35,6.62a2,2,0,0,1-3.81-1.23c1.08-3.38,5.27-9.71,13.32-9.39,8.31.32,10.78,6.62,10.92,9.91a2,2,0,0,1-1.91,2.08Z" transform="translate(-4.94 -28.6)"/><path d="M309.63,650.58l-.3,0a2,2,0,0,1-1.7-2.1c0-.07.4-7.64-3.55-11.53-1.78-1.75-4.16-2.49-7.27-2.27-11.81.84-11.18,13.26-11.15,13.79a2,2,0,0,1-4,.26c-.39-5.85,2.21-17.14,14.85-18,4.29-.31,7.78.85,10.38,3.43a16.56,16.56,0,0,1,4.22,8.54,9.65,9.65,0,0,1,7.3-2.14c6.94.62,8.89,5.14,8.95,7.44a2,2,0,0,1-1.95,2,2,2,0,0,1-2.05-1.95c0-.28-.36-3.12-5.3-3.56a6,6,0,0,0-6.5,4.56A2,2,0,0,1,309.63,650.58Z" transform="translate(-4.94 -28.6)"/><path d="M445.17,638.06a2,2,0,0,1-.46-.05,2,2,0,0,1-1.49-2.41c.16-.69,3.74-17.19-14.49-24.73-7.4-3.06-13.65-3.45-18.59-1.16a16.62,16.62,0,0,0-8.24,9.06,2,2,0,1,1-3.81-1.22,20.61,20.61,0,0,1,10.36-11.47c6-2.78,13.33-2.41,21.81,1.09,21.42,8.86,16.9,29.14,16.85,29.35A2,2,0,0,1,445.17,638.06Z" transform="translate(-4.94 -28.6)"/><path d="M456,648.67a2,2,0,0,1-1.89-1.35c0-.08-2.88-8.08-8.26-9.17-4.85-1-7.45,6-7.48,6a2,2,0,0,1-3.76-1.37c.15-.42,3.85-10.24,12-8.58,7.62,1.54,11.1,11.37,11.24,11.78a2,2,0,0,1-1.89,2.65Z" transform="translate(-4.94 -28.6)"/><path d="M595.33,501a2,2,0,0,1-2-1.7c-.09-.61-2.2-15.07,5.52-24.31,3.9-4.67,9.55-7.13,16.79-7.32,16.68-.45,24.77,6,28.46,10.91,2-6.54,7.7-16.5,23.76-17.57,24.08-1.63,26.9,17.54,26.93,17.73a2,2,0,0,1-4,.53c-.09-.63-2.46-15.61-22.7-14.27-20.42,1.36-21.1,18.66-21.12,19.39a2,2,0,0,1-3.92.52c-.17-.55-4.53-13.84-27.35-13.24-6,.16-10.69,2.14-13.82,5.88-6.57,7.84-4.67,21-4.65,21.16a2,2,0,0,1-1.68,2.28Z" transform="translate(-4.94 -28.6)"/><path d="M683.5,489.89a2,2,0,0,1-2-2.33c.55-3.25,3.57-9.64,11.07-10.55,10.07-1.22,14.8,3,15,3.13a2,2,0,0,1-2.69,3c-.13-.11-3.7-3.1-11.83-2.12-6.37.77-7.56,7-7.61,7.26A2,2,0,0,1,683.5,489.89Z" transform="translate(-4.94 -28.6)"/><path d="M683.5,512.38a2,2,0,0,1-1.93-2.54c.19-.72,1.75-7.17-4.14-8.92a5.85,5.85,0,0,0-4.66.24A6.9,6.9,0,0,0,670,505a2,2,0,0,1-3.88-1,11,11,0,0,1,4.7-6.34,9.66,9.66,0,0,1,7.78-.6c7.82,2.32,7.9,10.06,6.86,13.83A2,2,0,0,1,683.5,512.38Z" transform="translate(-4.94 -28.6)"/><path d="M700.87,463.63a2,2,0,0,1-1.93-1.48c-.87-3.25-.94-10.28,5.08-13.64,7.17-4,15.31.68,15.65.88a2,2,0,1,1-2,3.45c-.06,0-6.53-3.71-11.67-.84-4.83,2.69-3.19,9-3.17,9.11a2,2,0,0,1-1.93,2.52Z" transform="translate(-4.94 -28.6)"/><path d="M504,654.67a2,2,0,0,1-2-1.85c0-.22-1.41-22,19.5-23.64,7.76-.61,13.35.86,16.62,4.37a10.66,10.66,0,0,1,2.39,4.13,10.82,10.82,0,0,1,12.13-.75c7.16,4,5.49,11.61,3.6,15a2,2,0,1,1-3.51-1.93c.36-.66,3.34-6.57-2.06-9.63-5.71-3.23-9.89,2.44-10.06,2.68a2,2,0,0,1-3.6-1.47,7,7,0,0,0-1.86-5.39c-2.37-2.5-7-3.57-13.34-3.07-17,1.33-15.88,18.62-15.83,19.36a2,2,0,0,1-1.84,2.14Z" transform="translate(-4.94 -28.6)"/><path d="M562,611.67a2,2,0,0,1-2-1.79c-.53-4.91,1.26-14.74,11.78-16.76,18.51-3.55,23.56,11.1,23.61,11.25a2,2,0,0,1-3.8,1.25c-.16-.46-4.07-11.44-19.06-8.57-9.58,1.83-8.6,12-8.55,12.4a2,2,0,0,1-1.78,2.2Z" transform="translate(-4.94 -28.6)"/><path d="M544,591.5a2,2,0,0,1-1.9-2.62c.27-.85,2.38-8.56-7.2-12.53-9.94-4.12-14.57,3.51-14.76,3.83a2,2,0,1,1-3.45-2c2.24-3.81,9.24-9.85,19.74-5.5s10.82,13.35,9.47,17.47A2,2,0,0,1,544,591.5Z" transform="translate(-4.94 -28.6)"/><path d="M381.55,507.56l-.27,0a2,2,0,0,1-1.58-1.23C375.13,495.12,368,493,356.5,493a2,2,0,0,1,0-4c11.62,0,20.09,2.24,25.55,12.84,6.53-7.29,14.15-10.75,23.74-10.87,8.21-.07,12,3.13,15.84,7.55,10.45-16.79,32-26.6,50.32-22.55a54,54,0,0,1,22.34,11.66,23.68,23.68,0,0,1,3.33,4.57,22.92,22.92,0,0,0,2.73,3.83,2,2,0,0,1-.34,4h0c-2.21,0-3.78-2.5-5.77-5.67a23.12,23.12,0,0,0-2.65-3.74,50.3,50.3,0,0,0-20.5-10.71c-17.59-3.89-38.41,6.25-47.39,23.07a2,2,0,0,1-1.57,1,2,2,0,0,1-1.74-.72c-4.8-5.82-7.22-8.42-14.55-8.3-9.43.11-16.44,3.75-22.7,11.81A2,2,0,0,1,381.55,507.56ZM500,496h0Z" transform="translate(-4.94 -28.6)"/><path d="M236.73,521.94a2,2,0,0,1-1.85-1.24c-1.56-3.8-4.26-8.48-8.27-9.21s-8.27,2.79-11.15,5.87a2,2,0,0,1-2.92-2.73c5.17-5.54,10.15-7.93,14.79-7.08,3.57.65,6.72,3.24,9.25,7.56,2.32-4,6.26-7.44,9.92-7.44h.06c1.85,0,5.14.94,6.4,6.91a2,2,0,0,1-3.91.82c-.36-1.69-1.08-3.72-2.53-3.73h0c-2.66,0-6.89,4.71-7.82,8.71a2,2,0,0,1-1.79,1.54Z" transform="translate(-4.94 -28.6)"/><path d="M70,483a2,2,0,0,1-2-1.58c-.23-1.1-.69-1.33-.84-1.4-.82-.41-2.45-.11-4.35.79a2,2,0,1,1-1.71-3.61c3.13-1.49,5.84-1.75,7.84-.76a5.65,5.65,0,0,1,3,4.15A2,2,0,0,1,70.42,483,2,2,0,0,1,70,483Z" transform="translate(-4.94 -28.6)"/><path d="M155,544.5a2,2,0,0,1-1.83-1.2c-2-4.65-9-8.5-16.51-9.17-6-.53-10.75,1.1-13,4.47a2,2,0,0,1-3.33-2.21c3.07-4.63,9.15-6.91,16.67-6.25s16.78,4.54,19.83,11.56a2,2,0,0,1-1.83,2.8Z" transform="translate(-4.94 -28.6)"/><path d="M127.5,534.5a2,2,0,0,1-1.87-1.29c-1.18-3.06-6.44-5.91-11.05-6-2,0-4.68.48-5.73,3a2,2,0,1,1-3.7-1.53c1.47-3.55,4.93-5.57,9.48-5.49,5.54.07,12.75,3.36,14.74,8.54a2,2,0,0,1-1.87,2.72Z" transform="translate(-4.94 -28.6)"/><path d="M187,544a2,2,0,0,1-1.86-2.72c2.23-5.74,8.13-12.1,15.1-13.15a7.85,7.85,0,0,1,7.08,2.18,6.77,6.77,0,0,0,3.12,1.74,2,2,0,1,1-.86,3.91,10.54,10.54,0,0,1-4.83-2.58c-1.27-1.06-1.9-1.59-3.91-1.29-5.41.82-10.21,6.1-12,10.65A2,2,0,0,1,187,544Z" transform="translate(-4.94 -28.6)"/><path d="M212.5,530a2,2,0,0,1-1.2-3.6c3.91-2.94,8.4-3.78,12-2.24a2,2,0,0,1-1.57,3.68c-2.66-1.14-5.88.16-8,1.76A2,2,0,0,1,212.5,530Z" transform="translate(-4.94 -28.6)"/><path d="M388.5,566.5a2,2,0,0,1-2-1.85c-.38-4.93,3.63-8.94,10-10,5.83-1,12.5,1.08,14,6.83a2,2,0,0,1-3.88,1c-.87-3.42-5.41-4.54-9.44-3.87-3.47.57-6.87,2.56-6.63,5.73a2,2,0,0,1-1.84,2.15Z" transform="translate(-4.94 -28.6)"/><path d="M362.5,647.5a2,2,0,0,1-1.89-2.67c2.08-5.91,12.81-10,20.64-9.65,5.55.27,9.17,2.7,10.19,6.84a2,2,0,1,1-3.88,1c-.71-2.91-3.93-3.67-6.5-3.8-7.18-.34-15.49,3.64-16.67,7A2,2,0,0,1,362.5,647.5Z" transform="translate(-4.94 -28.6)"/><path d="M396,658a2,2,0,0,1-1.89-1.34c-.19-.54-.45-1.28-2.51-1.17a2,2,0,0,1-.21-4c4.19-.23,5.84,2,6.49,3.83A2,2,0,0,1,396,658Z" transform="translate(-4.94 -28.6)"/><path d="M404,634.5h-3.5a2,2,0,0,1,0-4H404a2,2,0,0,1,0,4Z" transform="translate(-4.94 -28.6)"/><path d="M305.5,623.5a2,2,0,0,1-1.92-2.55c.9-3.15,2.3-5,4.3-5.63,3.11-1,6.14,1.43,8.57,3.37l.3.24a2,2,0,0,1-2.49,3.13l-.3-.24c-1.42-1.13-3.8-3-4.86-2.69-.22.07-1,.49-1.67,2.91A2,2,0,0,1,305.5,623.5Z" transform="translate(-4.94 -28.6)"/><path d="M669,539.5a2,2,0,0,1-1.47-.64l-.7-.76c-3.73-4.06-5.6-6.09-11.44-5.62-3.8.31-8.23,1.86-9,4.55a2,2,0,1,1-3.86-1.05c1.33-4.88,7.33-7.06,12.5-7.48,7.8-.64,10.7,2.53,14.71,6.9l.69.75A2,2,0,0,1,669,539.5Z" transform="translate(-4.94 -28.6)"/><path d="M675,549.5a2,2,0,0,1-2-1.7c-.09-.59-.32-.68-.47-.74a4.77,4.77,0,0,0-3.81,1,2,2,0,1,1-2.48-3.13c1.95-1.54,5.24-2.59,7.76-1.6a4.71,4.71,0,0,1,3,3.86,2,2,0,0,1-1.68,2.28Z" transform="translate(-4.94 -28.6)"/><path d="M444.5,707a2,2,0,0,1-.43,0,2,2,0,0,1-1.52-2.38c1.91-8.71,12.72-11.75,19.78-11.11,5,.45,10.17,3.73,15.21,9.75a2,2,0,0,1-3.07,2.57c-3-3.56-7.57-7.9-12.5-8.34-5.44-.5-14.14,1.71-15.51,8A2,2,0,0,1,444.5,707Z" transform="translate(-4.94 -28.6)"/><path d="M473,712.5a2,2,0,0,1-.95-3.76c3.27-1.75,7.37-1.54,11-1.35,1.06.06,2.05.11,3,.11a2,2,0,0,1,0,4h0c-1,0-2.07-.06-3.18-.11-3.24-.17-6.6-.35-8.88.88A2,2,0,0,1,473,712.5Z" transform="translate(-4.94 -28.6)"/></g><g id="ELIPSE"><path d="M369.33,749.38A356.49,356.49,0,0,1,230.61,64.6,356.48,356.48,0,0,1,508.06,721.37,354.16,354.16,0,0,1,369.33,749.38Zm0-708.79C175,40.6,16.94,198.68,16.94,393S175,745.38,369.33,745.38,721.73,587.3,721.73,393,563.64,40.6,369.33,40.6Z" transform="translate(-4.94 -28.6)"/></g><g id="Azure_colour" data-name="Azure colour"><polygon class="cls-4" points="279.51 339.52 247.09 429.85 309.57 504.37 191.78 527.05 390.33 527.05 279.51 339.52"/><polygon class="cls-4" points="191.78 527.05 179.23 519.9 296.97 497.2 309.57 504.37 191.78 527.05"/><polygon class="cls-4" points="234.49 422.63 247.09 429.85 309.57 504.37 296.97 497.2 234.49 422.63"/><polygon class="cls-4" points="279.51 339.52 266.98 332.37 234.49 422.63 247.09 429.85 279.51 339.52"/><polygon class="cls-4" points="128.84 504.33 188.37 504.33 273.14 326.14 194.37 389.53 128.84 504.33"/><polygon class="cls-4" points="116.29 497.14 128.84 504.33 194.37 389.53 181.78 382.42 116.29 497.14"/><polygon class="cls-4" points="273.14 326.14 260.58 318.99 181.78 382.42 194.37 389.53 273.14 326.14"/><path class="cls-4" d="M344.41,607.45s.3,19.7,17.84,19.77c13.55.05,22.07-6.32,22.07-6.32l.07,11.44a49.75,49.75,0,0,1-20.81,5c-33.25,0-34.33-24.44-34.33-34.33s6.59-33,33-33,27.44,29.36,27.44,29.36v8.11Zm.07-9.78h31.1s1.41-17.55-15.11-17.55C345,580.12,344.48,597.67,344.48,597.67Z" transform="translate(-4.94 -28.6)"/><path class="cls-4" d="M372.74,571.83s-11.73-7.9-17.51-8.54c-4.57-1.1-30.54-2.19-37.27,24-10.68,41.47,35,49.09,35,49.09s-23.63-2.77-23.66-31c0-27.24,19.93-33.13,25.58-34.67C362.1,568.72,372.74,571.83,372.74,571.83Z" transform="translate(-4.94 -28.6)"/><path class="cls-4" d="M384.33,620.89l-12.55-7.15s-7.89,4.33-11.57,5.26-12,1-12,1,6.32,10.24,20.58,6.72S384.33,620.89,384.33,620.89Z" transform="translate(-4.94 -28.6)"/><path class="cls-4" d="M375.59,597.67,363,590.52H346a20.55,20.55,0,0,0-.84,2.76c-.29,1.37-.67,4.39-.67,4.39Z" transform="translate(-4.94 -28.6)"/><path class="cls-4" d="M360.94,580.12s8.34,0,11.58,5.55c3.48,5,3.07,12,3.07,12L363,590.52a31.69,31.69,0,0,0-.37-5.27A20.35,20.35,0,0,0,360.94,580.12Z" transform="translate(-4.94 -28.6)"/><path class="cls-4" d="M322.17,571.15A9.08,9.08,0,0,0,317.9,570c-15.26,0-18.82,16.44-18.82,16.44V571.3H284v65h15.09V600s0-14.05,14.39-17.42c3.13,0,6.85.52,8.7,1.56Z" transform="translate(-4.94 -28.6)"/><polygon class="cls-4" points="266.48 535.57 279.04 542.72 294.13 542.71 281.58 535.55 266.48 535.57"/><path class="cls-4" d="M322.17,571.15,309.62,564s-2.52-1.91-8-.82a17.82,17.82,0,0,0-8.78,4.55l6.26,3.57v15.11s3.06-9.9,8.89-13.5C316.71,567.51,322.17,571.15,322.17,571.15Z" transform="translate(-4.94 -28.6)"/><polygon class="cls-4" points="266.48 600.59 279.04 607.74 279.04 542.72 266.48 535.57 266.48 600.59"/><path class="cls-4" d="M220.14,571.08H205.77V616.7s1,21,22.66,21a23.09,23.09,0,0,0,20.88-12.29v10.66h15v-65H249.47v39.84s-1.93,15.83-15.09,15.83c-12,0-14.38-12.13-14.38-12.13Z" transform="translate(-4.94 -28.6)"/><polygon class="cls-4" points="215.2 542.49 200.83 542.49 188.28 535.34 202.65 535.34 215.2 542.49"/><polygon class="cls-4" points="231.97 535.34 244.53 542.49 259.34 542.49 246.78 535.34 231.97 535.34"/><path class="cls-4" d="M246.85,629.18a22,22,0,0,0,2.46-3.74v10.66l-6-3.42A26.28,26.28,0,0,0,246.85,629.18Z" transform="translate(-4.94 -28.6)"/><path class="cls-4" d="M249.47,571.08l-12.55-7.15v39.84s-1.52,9.88-7.51,13.59a14,14,0,0,1-7.41,2.24s4.64,9.42,16.43,6.59c9.66-3,11-15.27,11-15.27Z" transform="translate(-4.94 -28.6)"/><path class="cls-4" d="M193.22,563.93l12.55,7.15V616.7a24,24,0,0,0,2.77,9.67,20,20,0,0,0,5.55,6.89s-5.9-1.35-13.19-7.73-7.68-16-7.68-16Z" transform="translate(-4.94 -28.6)"/><polygon class="cls-4" points="132.25 607.51 188.39 607.51 188.39 596.85 152.4 596.85 188.39 549.3 188.39 542.49 135.07 542.49 135.07 553.89 168.84 553.89 132.25 602.33 132.25 607.51"/><polygon class="cls-4" points="135.07 542.49 122.51 535.34 122.51 546.74 135.07 553.89 135.07 542.49"/><polygon class="cls-4" points="188.39 542.49 175.84 535.34 122.51 535.34 135.07 542.49 188.39 542.49"/><polygon class="cls-4" points="132.25 602.33 124.4 597.85 122.18 591.89 150.88 553.89 168.84 553.89 132.25 602.33"/><polygon class="cls-4" points="188.39 596.85 175.84 589.7 157.81 589.7 152.4 596.85 188.39 596.85"/><polyline class="cls-4" points="132.25 607.51 126.86 604.44 124.4 597.85 132.25 602.33 132.25 607.69"/><path class="cls-4" d="M81.38,545.38H99.1l33.74,90.45-16-.06-8.05-22.94H70.69l-7.17,23.27H46.91Zm-6.25,56h29.25l-14.63-43Z" transform="translate(-4.94 -28.6)"/><polygon class="cls-4" points="76.44 516.78 63.89 509.63 29.42 600.36 41.97 607.51 76.44 516.78"/><polygon class="cls-4" points="70.19 572.78 99.44 572.78 86.89 565.63 72.63 565.61 70.19 572.78"/><polygon class="cls-4" points="84.82 529.82 79.76 544.68 86.89 565.63 99.44 572.78 84.82 529.82"/><polygon class="cls-4" points="63.89 509.63 81.6 509.63 94.16 516.78 76.44 516.78 63.89 509.63"/><polygon class="cls-4" points="93.81 584.24 103.85 584.24 111.9 607.18 99.35 600.03 93.81 584.24"/><path class="cls-5" d="M293.67,381.33c-.66-2.46-3.44-3.61-5.15-5.17-1.32-1.2-2.17-2.6-3.53-3.72-.46,2.82-1.75,5.19-.65,7.88,1.84,4.49,6.07,8.89,8.9,12.82,4.48,6.23,9,12.34,13.7,18.36,3.6,4.61,6.93,10.14,11.31,14.09-6.76-9.77-10.75-20.91-16.76-30.9-1.94-3.23-2.76-6.56-4.35-9.86-1.38-2.87-5.44-5.27-5.81-8.52" transform="translate(-4.94 -28.6)"/><path class="cls-5" d="M351.67,484c-.58-.66-1.63-1.38-2.27-2-.46,3.22,1.47,5.73,3,8.37,2.29,3.92,4.23,8,6.5,11.94a231.5,231.5,0,0,0,12.35,19.6c3.29,4.58,5.14,9.56,7.8,14.38,2.13,3.87,6,7.51,2.4,11.57-5.67,6.39-17.08,6.8-24.78,8.7,9,.88,18.91-.59,28.09-.59,2.31,0,6.51.67,8.55-.5,2.68-1.53.79-3.33-1.29-6a66.85,66.85,0,0,1-5.69-8.64c-2.07-3.68-4.95-6.39-7.22-9.88-4.73-7.3-7.73-15.28-12-22.8-2.42-4.31-4.26-8.72-6.33-13.2A29.76,29.76,0,0,0,351.67,484Z" transform="translate(-4.94 -28.6)"/><path class="cls-5" d="M215.49,405.5c-6.14,6.08-13,11.59-18,18.73-2.36,3.39-3.06,6.9-4.92,10.47a140,140,0,0,1-7.92,12.64c-2.28,3.41-3.39,7.61-5.63,10.9,1.88-3.46,5.41-6.24,7.9-9.33,3.22-4,6.16-8.31,9.16-12.49,5.73-8,13.08-14,19.51-21.33,10.48-11.93,23-21.16,34.88-31.69,5.49-4.88,8.5-12.94,14.85-16.93-2.7,2.05-5.16,4.41-7.81,6.52-6.51,5.17-12.71,10.75-19.39,15.7C230.57,394.26,222.21,398.83,215.49,405.5Z" transform="translate(-4.94 -28.6)"/><path class="cls-5" d="M98,546.67c-2.7-.71-11.12-1.87-13.59-.27-6.25,4,5.57,3.37,7.13,3.6,5.76.83,5.85,3.65,7.46,8.41,2.16,6.4,4.65,12.87,7.42,19,2.07,4.59,5.19,11.53,9.22,14.64-.28-2.77-2.56-5.74-3.68-8.32-1.26-2.9-2-5.88-3-8.84-1.28-3.62-2.31-7.26-3.44-10.92-1-3.2-2.23-6.4-3.5-9.5C101,552,98.67,549.54,98,546.67Z" transform="translate(-4.94 -28.6)"/><path class="cls-5" d="M165,572c-6.92-1.87-17.57-1-24.62.38-.37,2.14.39,4.52.67,6.62,1.26-.92,1.73-3.53,3-4.26,1.56-.89,5.66,0,7.36-.07,7.6-.3,15.15-.29,22.75,0a47.48,47.48,0,0,1,12,2.17c4.82,1.5,2.71,2.92,2.18,7.43,1.5-1.48,4.46-5.15,4.63-7.43.14-1.92-1.5-3.59-1.34-5.71-3.88-.82-9.2.54-13.29.54C174.56,571.67,170.78,571.67,165,572Z" transform="translate(-4.94 -28.6)"/><path class="cls-5" d="M218.33,570.67c-3-.25-14.39,2.89-7.6,5.67,2.4,1,5.11-1,7.2,1.32,1.18,1.32,2,4.72,3,6.26C221.1,581.2,221.12,572.82,218.33,570.67Z" transform="translate(-4.94 -28.6)"/><path class="cls-5" d="M261.33,572c-5.05.55-10.44-.57-10.62,5.28,6.3.55,7.4-1.94,9.29,4.79,1.31,4.66,3.67,12.13,6.59,15.91.47-5.7-.26-11.7-.26-17.49C266.34,578.34,267.13,572.83,261.33,572Z" transform="translate(-4.94 -28.6)"/><path class="cls-5" d="M294.67,572c-2.89-.34-6.59.84-9.28,1.72a22.25,22.25,0,0,1-.67,4.57c2.78-1.1,5.17-3,8.69-2.62s3.56,3.21,5.84,5.9c.75-1.56,1.14-6.94.42-8.76-.95-2.38-1.21-1.8-4.33-1.81" transform="translate(-4.94 -28.6)"/><path class="cls-5" d="M319.67,571.33c-4.06,0-8.46.08-11,3.61,2.45-.48,7.63-2.73,9.59.25,1.12,1.7-.27,6.27-1.52,7.41,1.58.1,3.72.58,4.82-.67s.68-9.19-.6-10.26" transform="translate(-4.94 -28.6)"/><path class="cls-5" d="M366.33,571.67c-5.92-.9-14.67-.85-19.3,3.6,6.41,1,12.5-2.18,19.23-.18,4.33,1.29,6.59,4.17,9.56,7.24,3.32,3.44,4,5.93,4.18,10.68.19,4.1-2,8.93-1.29,12.62,2.9.28,7.94.42,10.57-.68,1.42-6.26-.64-13.64-1.94-19.8C385.57,576.79,377.51,574.07,366.33,571.67Z" transform="translate(-4.94 -28.6)"/><path class="cls-5" d="M363,627.67c4.77-.6,9.59-1.17,14.33-1.92,3-.48,6.11-2.63,8.95-2.7.09,1.88.45,4.35-1,5.65-2.52-1.66-6.18-1.08-9.08-1.29A107.4,107.4,0,0,0,363,627.67Z" transform="translate(-4.94 -28.6)"/></g><g id="SHADOWS"><g class="cls-6"><polygon points="191.78 527.05 179.23 519.9 296.97 497.2 309.57 504.37 191.78 527.05"/><polygon points="234.49 422.63 247.09 429.85 309.57 504.37 296.97 497.2 234.49 422.63"/><polygon points="279.51 339.52 266.98 332.37 234.49 422.63 247.09 429.85 279.51 339.52"/></g><polygon class="cls-6" points="116.29 497.14 128.84 504.33 194.37 389.53 181.78 382.42 116.29 497.14"/><polygon class="cls-6" points="273.14 326.14 260.58 318.99 181.78 382.42 194.37 389.53 273.14 326.14"/><path class="cls-6" d="M372.74,571.83s-11.73-7.9-17.51-8.54c-4.57-1.1-30.54-2.19-37.27,24-10.68,41.47,35,49.09,35,49.09s-23.63-2.77-23.66-31c0-27.24,19.93-33.13,25.58-34.67C362.1,568.72,372.74,571.83,372.74,571.83Z" transform="translate(-4.94 -28.6)"/><path class="cls-6" d="M384.33,620.89l-12.55-7.15s-7.89,4.33-11.57,5.26-12,1-12,1,6.32,10.24,20.58,6.72S384.33,620.89,384.33,620.89Z" transform="translate(-4.94 -28.6)"/><path class="cls-6" d="M375.59,597.67,363,590.52H346a20.55,20.55,0,0,0-.84,2.76c-.29,1.37-.67,4.39-.67,4.39Z" transform="translate(-4.94 -28.6)"/><path class="cls-6" d="M360.94,580.12s8.34,0,11.58,5.55c3.48,5,3.07,12,3.07,12L363,590.52a31.69,31.69,0,0,0-.37-5.27A20.35,20.35,0,0,0,360.94,580.12Z" transform="translate(-4.94 -28.6)"/><polygon class="cls-6" points="266.48 535.57 279.04 542.72 294.13 542.71 281.58 535.55 266.48 535.57"/><path class="cls-6" d="M322.17,571.15,309.62,564s-2.52-1.91-8-.82a17.82,17.82,0,0,0-8.78,4.55l6.26,3.57v15.11s3.06-9.9,8.89-13.5C316.71,567.51,322.17,571.15,322.17,571.15Z" transform="translate(-4.94 -28.6)"/><polygon class="cls-6" points="266.48 600.59 279.04 607.74 279.04 542.72 266.48 535.57 266.48 600.59"/><polygon class="cls-6" points="215.2 542.49 200.83 542.49 188.28 535.34 202.65 535.34 215.2 542.49"/><polygon class="cls-6" points="231.97 535.34 244.53 542.49 259.34 542.49 246.78 535.34 231.97 535.34"/><path class="cls-6" d="M246.85,629.18a22,22,0,0,0,2.46-3.74v10.66l-6-3.42A26.28,26.28,0,0,0,246.85,629.18Z" transform="translate(-4.94 -28.6)"/><path class="cls-6" d="M249.47,571.08l-12.55-7.15v39.84s-1.52,9.88-7.51,13.59a14,14,0,0,1-7.41,2.24s4.64,9.42,16.43,6.59c9.66-3,11-15.27,11-15.27Z" transform="translate(-4.94 -28.6)"/><path class="cls-6" d="M193.22,563.93l12.55,7.15V616.7a24,24,0,0,0,2.77,9.67,20,20,0,0,0,5.55,6.89s-5.9-1.35-13.19-7.73-7.68-16-7.68-16Z" transform="translate(-4.94 -28.6)"/><polygon class="cls-6" points="135.07 542.49 122.51 535.34 122.51 546.74 135.07 553.89 135.07 542.49"/><polygon class="cls-6" points="132.25 602.33 124.4 597.85 122.18 591.89 150.88 553.89 168.84 553.89 132.25 602.33"/><polygon class="cls-6" points="188.39 596.85 175.84 589.7 157.81 589.7 152.4 596.85 188.39 596.85"/><polyline class="cls-6" points="132.25 607.51 126.86 604.44 124.4 597.85 132.25 602.33 132.25 607.69"/><polygon class="cls-6" points="76.44 516.78 63.89 509.63 29.42 600.36 41.97 607.51 76.44 516.78"/><polygon class="cls-6" points="70.19 572.78 99.44 572.78 86.89 565.63 72.63 565.61 70.19 572.78"/><polygon class="cls-6" points="84.82 529.82 79.76 544.68 86.89 565.63 99.44 572.78 84.82 529.82"/><polygon class="cls-6" points="63.89 509.63 81.6 509.63 94.16 516.78 76.44 516.78 63.89 509.63"/><polygon class="cls-6" points="93.81 584.24 103.85 584.24 111.9 607.18 99.35 600.03 93.81 584.24"/><polygon class="cls-6" points="135.07 542.49 122.51 535.34 122.51 546.74 135.07 553.89 135.07 542.49"/><polygon class="cls-6" points="188.39 542.49 175.84 535.34 122.51 535.34 135.07 542.49 188.39 542.49"/><polygon class="cls-6" points="132.25 602.33 124.4 597.85 122.18 591.89 150.88 553.89 168.84 553.89 132.25 602.33"/><polygon class="cls-6" points="188.39 596.85 175.84 589.7 157.81 589.7 152.4 596.85 188.39 596.85"/><polyline points="132.25 607.51 126.86 604.44 124.4 597.85 132.25 602.33 132.25 607.69"/><path class="cls-3" d="M320,433c-2.59,3.62-2.9,8.61-3.66,12.9a73.44,73.44,0,0,0-1.09,12.34c-.05,8.05.63,16.8,6.12,23.25,4.07,4.78,10.47,7.56,16.42,8.88,4.93,1.09,8.93.85,13.2,3.64,3,1.95,4.68,3.61,8.22,4.49.24-2.44-3.24-4.75-4.58-6.67-1.75-2.49-2.31-5-3.63-7.68-1.69-3.39-1.93-6-5-8.26a47.59,47.59,0,0,1-5.69-4.78c-2.27-2.33-3.68-5.34-5.83-7.73-.93-1-2.51-1.77-3.31-2.87s-.74-2.65-1.25-3.94c-1-2.41-3-4.58-3.67-7.11C324.78,444,323.25,438.8,320,433Z" transform="translate(-4.94 -28.6)"/></g><g id="Azure_lineart" data-name="Azure lineart"><path d="M363.59,639.33c-24.1,0-36.33-12.22-36.33-36.33,0-13.54,9.51-35,35-35,28,0,29.43,31,29.44,31.3v8.18a2,2,0,0,1-2,2H346.58c.6,4.68,3.33,15.72,15.68,15.77h.15a37.52,37.52,0,0,0,20.72-5.93,2,2,0,0,1,3.19,1.59l.07,11.44a2,2,0,0,1-1.07,1.78A51.37,51.37,0,0,1,363.59,639.33ZM362.3,572c-25.46,0-31,22.4-31,31,0,8,0,32.33,32.33,32.33a47.92,47.92,0,0,0,18.8-4.26l0-6.66a43,43,0,0,1-19.93,4.79h-.17c-15.43-.06-19.72-14.24-19.84-21.74a2,2,0,0,1,2-2h43.32v-6.11C387.69,598.29,386.46,572,362.3,572Zm13.29,27.7h-31.1a2,2,0,0,1-2-2.06c.2-6.74,4.22-19.49,18-19.49,5.27,0,9.45,1.64,12.44,4.87,5.33,5.77,4.69,14.48,4.67,14.84A2,2,0,0,1,375.59,599.67Zm-28.89-4h26.89c-.12-2.47-.77-6.9-3.63-10-2.19-2.37-5.38-3.56-9.48-3.56C350,582.12,347.35,591.41,346.7,595.67Z" transform="translate(-4.94 -28.6)"/><path d="M353,638.34h-.24a19.42,19.42,0,0,1-2.07-.42c-5.69-1.31-22.09-6.13-30.82-19.56-5.68-8.73-7-19.36-3.81-31.6a42.06,42.06,0,0,1,1.36-4.31,2,2,0,1,1,3.74,1.41,38,38,0,0,0-1.23,3.9c-2.86,11.1-1.76,20.66,3.27,28.41a35.54,35.54,0,0,0,9.9,9.87c-3.34-4.81-5.77-11.47-5.78-20.65,0-13.33,4.67-30.5,27.06-36.6a26.23,26.23,0,0,1,8.13-.67,25.67,25.67,0,0,0-7.47-2.82l-.25,0c-3.92-.95-21.75-1.61-30.9,13a2,2,0,1,1-3.39-2.12c10.31-16.49,30.39-15.89,35.1-14.82,6.12.76,17,8,18.28,8.86a2,2,0,0,1-1.68,3.58c-.1,0-10.19-2.92-16.78-1.13-20,5.44-24.12,20.81-24.11,32.74,0,19.29,11.47,25.85,17.81,28,2.51.72,4.12,1,4.18,1a2,2,0,0,1-.33,4Z" transform="translate(-4.94 -28.6)"/><path d="M363.11,629.46a20.1,20.1,0,0,1-16.56-8.4,2,2,0,0,1,1.69-3.05c.08,0,8.08-.08,11.48-.94,2.82-.72,9-3.91,11.1-5.08a2,2,0,0,1,2,0l12.55,7.15a2,2,0,0,1,.77,2.68c-1.08,2-7,4.43-16.79,6.83A25.77,25.77,0,0,1,363.11,629.46Zm-10.45-7.59c2.82,2.31,7.92,4.83,15.69,2.92a74,74,0,0,0,12.1-3.81l-8.7-5c-2.29,1.21-7.94,4.12-11.05,4.92A47.68,47.68,0,0,1,352.66,621.87Z" transform="translate(-4.94 -28.6)"/><path d="M375.59,599.67h-31.1a2,2,0,0,1-2-2.25c0-.13.39-3.12.7-4.56a22.5,22.5,0,0,1,.94-3.08,2,2,0,0,1,1.86-1.27h17a2,2,0,0,1,1,.26l12.55,7.15a2,2,0,0,1-1,3.74Zm-28.81-4H368l-5.53-3.15H347.42c-.11.37-.23.78-.31,1.18S346.88,594.94,346.77,595.67Z" transform="translate(-4.94 -28.6)"/><path d="M375.59,599.67a2,2,0,0,1-1-.26L362,592.26a2,2,0,0,1-1-1.78,29.91,29.91,0,0,0-.34-4.89,18.64,18.64,0,0,0-1.53-4.54,2,2,0,0,1,1.78-2.91c.39,0,9.47.07,13.27,6.48,3.78,5.54,3.39,12.87,3.38,13.18a2,2,0,0,1-2,1.88ZM365,589.35l8.38,4.78a16.85,16.85,0,0,0-2.54-7.32l-.08-.13c-1.49-2.55-4.46-3.67-6.75-4.17a18,18,0,0,1,.59,2.4A32.08,32.08,0,0,1,365,589.35Z" transform="translate(-4.94 -28.6)"/><path d="M284,638.34a2,2,0,0,1-2-2v-65a2,2,0,0,1,2-2h15.1a2,2,0,0,1,2,2v5.9c3.08-4.58,8.31-9.23,16.82-9.23a11.15,11.15,0,0,1,5.17,1.39,2,2,0,0,1,1.11,1.79v13a2,2,0,0,1-3,1.75c-1.32-.74-4.45-1.28-7.5-1.31-12.46,3.06-12.62,14.91-12.62,15.42v36.28a2,2,0,0,1-2,2H284Zm2-65v61h11.09V600c0-.16.21-15.68,15.94-19.36a2,2,0,0,1,.46-.05,30.48,30.48,0,0,1,6.71.74v-8.92a5.81,5.81,0,0,0-2.27-.46c-13.49,0-16.84,14.71-16.87,14.86a2,2,0,0,1-4-.42V573.3Z" transform="translate(-4.94 -28.6)"/><path d="M284,573.31a2,2,0,0,1-1-.26l-12.55-7.15a2,2,0,0,1,1-3.74h15.1a2,2,0,0,1,1,.26l12.55,7.15a2,2,0,0,1-1,3.74H284Zm-5-7.16,5.54,3.16h7L286,566.15Z" transform="translate(-4.94 -28.6)"/><path d="M299.07,588.41l-.3,0a2,2,0,0,1-1.7-2V572.46l-5.26-3a2,2,0,0,1-.46-3.11,19.82,19.82,0,0,1,9.85-5.14c5.69-1.13,8.76.6,9.48,1.08l12.19,6.95c.23.12.37.21.4.24a2,2,0,0,1-2.1,3.4l-.31-.18c-1-.5-5.25-2.18-11.86,1.9-5.11,3.16-8,12.3-8,12.39A2,2,0,0,1,299.07,588.41Zm-2.71-21,3.7,2.11a2,2,0,0,1,1,1.74v6.12a19.35,19.35,0,0,1,5.84-6.21,22.32,22.32,0,0,1,6.44-2.78l-4.72-2.69-.22-.14s-2-1.33-6.43-.45A16.12,16.12,0,0,0,296.36,567.46Z" transform="translate(-4.94 -28.6)"/><path d="M284,638.34a2,2,0,0,1-1-.26l-12.55-7.15a2,2,0,0,1-1-1.74v-65a2,2,0,0,1,3-1.74L285,569.58a2,2,0,0,1,1,1.74v65a2,2,0,0,1-2,2ZM273.42,628,282,632.9V572.48l-8.55-4.87Z" transform="translate(-4.94 -28.6)"/><path d="M228.43,639.74c-23.26,0-24.65-22.71-24.66-22.93V571.08a2,2,0,0,1,2-2h14.37a2,2,0,0,1,2,2L222,614.42c.33,1.41,2.82,10.34,12.38,10.34,10.81,0,12.89-12.54,13.09-14V571.08a2,2,0,0,1,2-2h14.81a2,2,0,0,1,2,2v65a2,2,0,0,1-2,2h-15a2,2,0,0,1-2-2v-4.38A24.94,24.94,0,0,1,228.43,639.74Zm-20.66-23.09c.08,1.27,1.53,19.09,20.66,19.09a21.16,21.16,0,0,0,19.07-11.13,2,2,0,0,1,3.82.83v8.66h11v-61H251.47v37.84a2,2,0,0,1,0,.24c-.74,6.08-5.26,17.59-17.08,17.59-10.79,0-15.41-9-16.35-13.74a2,2,0,0,1,0-.39l.14-41.54H207.77Z" transform="translate(-4.94 -28.6)"/><path d="M220.14,573.08H205.77a2,2,0,0,1-1-.26l-12.55-7.15a2,2,0,0,1,1-3.74h14.37a2,2,0,0,1,1,.26l12.55,7.15a2,2,0,0,1-1,3.74Zm-13.84-4h6.29l-5.53-3.15h-6.29Z" transform="translate(-4.94 -28.6)"/><path d="M264.28,573.08H249.47a2,2,0,0,1-1-.26l-12.55-7.15a2,2,0,0,1,1-3.74h14.81a2,2,0,0,1,1,.26l12.55,7.15a2,2,0,0,1-1,3.74Zm-14.28-4h6.73l-5.53-3.15h-6.73Z" transform="translate(-4.94 -28.6)"/><path d="M249.32,638.11a2,2,0,0,1-1-.26l-6-3.42a2,2,0,0,1-.25-3.3,24.44,24.44,0,0,0,3.23-3.21h0a20,20,0,0,0,2.22-3.36,2,2,0,0,1,3.79.89v10.66a2,2,0,0,1-2,2Zm-2.61-5.79.61.35v-1Zm.15-3.13h0Z" transform="translate(-4.94 -28.6)"/><path d="M234.21,628.72a15.72,15.72,0,0,1-14-8.23,2,2,0,0,1,.11-2,1.93,1.93,0,0,1,1.74-.92,12,12,0,0,0,6.23-1.9c4.84-3,6.43-11,6.63-12.1V563.93a2,2,0,0,1,3-1.74l12.55,7.15a2,2,0,0,1,1,1.74v39.84a2,2,0,0,1,0,.22c-.06.55-1.66,13.6-12.44,17l-.13,0A20,20,0,0,1,234.21,628.72Zm-8.61-7.56c2.06,2.11,6,4.61,12.29,3.11,7.84-2.49,9.42-12.38,9.58-13.47V572.25l-8.55-4.87v36.4a2,2,0,0,1,0,.3c-.07.44-1.73,10.84-8.44,15A14.88,14.88,0,0,1,225.6,621.15Z" transform="translate(-4.94 -28.6)"/><path d="M214.09,635.26a2,2,0,0,1-.44,0c-.26-.06-6.48-1.53-14.06-8.17-7.84-6.87-8.35-17-8.36-17.41v-45.7a2,2,0,0,1,3-1.74l12.55,7.15a2,2,0,0,1,1,1.74V616.7h0a22.32,22.32,0,0,0,2.53,8.72,18.54,18.54,0,0,0,4.92,6.18,2,2,0,0,1-1.13,3.65Zm-18.87-67.89v42.18s.48,8.77,7,14.48a42.79,42.79,0,0,0,4.73,3.61l-.18-.33a26,26,0,0,1-3-10.56V572.25Z" transform="translate(-4.94 -28.6)"/><path d="M193.33,638.11H137.19a2,2,0,0,1-2-2v-5.18a2,2,0,0,1,.4-1.21l34.16-45.23H140a2,2,0,0,1-2-2V571.08a2,2,0,0,1,2-2h53.32a2,2,0,0,1,2,2v6.81a2,2,0,0,1-.41,1.21l-33.56,44.34h32a2,2,0,0,1,2,2v10.66A2,2,0,0,1,193.33,638.11Zm-54.14-4h52.14v-6.66h-34a2,2,0,0,1-1.59-3.21l35.59-47v-4.14H142v7.41h31.77a2,2,0,0,1,1.6,3.21l-36.18,47.9Z" transform="translate(-4.94 -28.6)"/><path d="M140,584.49a2,2,0,0,1-1-.26l-12.55-7.15a2,2,0,0,1-1-1.74v-11.4a2,2,0,0,1,3-1.74L141,569.35a2,2,0,0,1,1,1.74v11.41a2,2,0,0,1-2,2Zm-10.55-10.31L138,579v-6.8l-8.55-4.87Z" transform="translate(-4.94 -28.6)"/><path d="M193.33,573.08H140a2,2,0,0,1-1-.26l-12.55-7.15a2,2,0,0,1,1-3.74h53.32a2,2,0,0,1,1,.26l12.55,7.15a2,2,0,0,1-1,3.74Zm-52.79-4h45.24l-5.53-3.15H135Z" transform="translate(-4.94 -28.6)"/><path d="M137.19,632.92a2,2,0,0,1-1-.26l-7.85-4.47a2,2,0,0,1-.88-1l-2.22-6a2,2,0,0,1,.28-1.9l28.7-38a2,2,0,0,1,1.6-.79h18a2,2,0,0,1,1.6,3.21l-36.59,48.43A2,2,0,0,1,137.19,632.92ZM131,625.07l5.69,3.25,33.1-43.83H156.82l-27.44,36.33Z" transform="translate(-4.94 -28.6)"/><path d="M193.33,627.44h-36a2,2,0,0,1-1.59-3.21l5.41-7.15a2,2,0,0,1,1.59-.79h18a2,2,0,0,1,1,.26l12.55,7.15a2,2,0,0,1-1,3.74Zm-32-4h24.42l-5.53-3.15h-16.5Z" transform="translate(-4.94 -28.6)"/><path d="M137.19,638.28a2,2,0,0,1-1.58-.78l-4.8-2.74a2,2,0,0,1-.88-1l-2.46-6.58a2,2,0,0,1,2.86-2.44l7.85,4.47a2,2,0,0,1,1,1.74v5.15s0,0,0,.07v.14A2,2,0,0,1,137.19,638.28Zm-3.78-6.63,1.78,1v-.58l-2.05-1.17Z" transform="translate(-4.94 -28.6)"/><path d="M63.52,638.11H46.92A2,2,0,0,1,45,635.4l34.47-90.73a2,2,0,0,1,1.87-1.29H99.1a2,2,0,0,1,1.87,1.3l33.74,90.45a2,2,0,0,1-1.87,2.7h0l-16-.06a2,2,0,0,1-1.88-1.34l-7.58-21.6H72.17L65.43,636.7A2,2,0,0,1,63.52,638.11Zm-13.71-4H62l6.73-21.86a2,2,0,0,1,1.91-1.41h38.1a2,2,0,0,1,1.89,1.34l7.59,21.61,11.69,0L97.71,547.38H82.76Zm54.57-30.73H75.13a2,2,0,0,1-1.89-2.64l14.63-43a2,2,0,0,1,3.79,0l14.63,43a2,2,0,0,1-1.89,2.64Zm-26.46-4h23.67L89.76,564.62Z" transform="translate(-4.94 -28.6)"/><path d="M46.92,638.11a2,2,0,0,1-1-.26l-12.55-7.15a2,2,0,0,1-.88-2.45L67,537.51a2,2,0,0,1,2.86-1l12.55,7.15a2,2,0,0,1,.88,2.45L48.78,636.82a2,2,0,0,1-1.87,1.29Zm-10.08-10,9,5.15,33-86.95-9-5.15Z" transform="translate(-4.94 -28.6)"/><path d="M104.38,603.37H75.13a2,2,0,0,1-1.89-2.64l2.44-7.16a2,2,0,0,1,1.89-1.36H91.83a2,2,0,0,1,1,.26l12.55,7.15a2,2,0,0,1-1,3.74Zm-26.46-4H96.83l-5.53-3.15H79Z" transform="translate(-4.94 -28.6)"/><path d="M104.38,603.37a2,2,0,0,1-1-.26L90.84,596a2,2,0,0,1-.9-1.09l-7.13-20.95a2,2,0,0,1,0-1.29l5.06-14.86a2,2,0,0,1,3.79,0l14.63,43a2,2,0,0,1-1.89,2.64Zm-10.9-10.51,7.31,4.17-11-32.4-2.95,8.65Z" transform="translate(-4.94 -28.6)"/><path d="M99.1,547.38H81.38a2,2,0,0,1-1-.26L67.84,540a2,2,0,0,1,1-3.74H86.55a2,2,0,0,1,1,.26l12.55,7.15a2,2,0,0,1-1,3.74Zm-17.19-4h9.64L86,540.22H76.38Z" transform="translate(-4.94 -28.6)"/><path d="M116.84,637.77a2,2,0,0,1-1-.26l-12.55-7.15a2,2,0,0,1-.9-1.08L96.86,613.5a2,2,0,0,1,1.89-2.66h10a2,2,0,0,1,1.89,1.34l8.05,22.94a2,2,0,0,1-1.89,2.66Zm-10.91-10.52,7.25,4.13-5.81-16.55h-5.8Z" transform="translate(-4.94 -28.6)"/><path d="M395.28,557.65H196.72a2,2,0,0,1-.38-4l114.45-22-60.3-71.92a2,2,0,0,1-.35-2l32.42-90.33a2,2,0,0,1,3.6-.34L397,554.63a2,2,0,0,1-1.72,3Zm-177.59-4H391.77L284.9,372.8,254.3,458,316,531.68a2,2,0,0,1-1.15,3.25Z" transform="translate(-4.94 -28.6)"/><path d="M196.72,557.65a2,2,0,0,1-1-.26l-12.55-7.15a2,2,0,0,1,.61-3.7l117.75-22.69a2,2,0,0,1,1.37.23l12.6,7.17a2,2,0,0,1-.61,3.7L197.1,557.61A2,2,0,0,1,196.72,557.65Zm-6.86-8.21,7.21,4.11L308.82,532l-7.25-4.12Z" transform="translate(-4.94 -28.6)"/><path d="M314.51,535a2,2,0,0,1-1-.26l-12.6-7.17a2,2,0,0,1-.54-.45l-62.49-74.57a2,2,0,0,1,2.53-3L253,456.71a2,2,0,0,1,.54.45L316,531.68a2,2,0,0,1-1.53,3.29Zm-11.3-10.73,2.62,1.49L250.73,460l-2.58-1.48Z" transform="translate(-4.94 -28.6)"/><path d="M252,460.44a2,2,0,0,1-1-.26L238.43,453a2,2,0,0,1-.89-2.41l22.55-62.64a2,2,0,0,1,3.76,1.35l-22,61.06,9.08,5.2L282,369l-8.56-4.88a2,2,0,0,1,2-3.47l10,5.72a2,2,0,0,1,.89,2.41l-32.42,90.33a2,2,0,0,1-1.88,1.32Z" transform="translate(-4.94 -28.6)"/><path d="M193.31,534.93H133.79a2,2,0,0,1-1.74-3l65.52-114.8a2,2,0,0,1,.48-.57l78.77-63.39a2,2,0,0,1,3.06,2.42L195.12,533.79A2,2,0,0,1,193.31,534.93Zm-56.08-4h54.82l80.46-169.14-71.65,57.66Z" transform="translate(-4.94 -28.6)"/><path d="M133.79,534.93a2,2,0,0,1-1-.26l-12.55-7.19a2,2,0,0,1-.74-2.73L185,410a2,2,0,0,1,2.72-.75l12.59,7.11a2,2,0,0,1,.75,2.73l-65.52,114.8a2,2,0,0,1-1.74,1ZM124,525l9.08,5.2,63.53-111.31-9.1-5.14Z" transform="translate(-4.94 -28.6)"/><path d="M199.31,420.13a2,2,0,0,1-1-.26l-12.59-7.11a2,2,0,0,1-.27-3.3L264.27,346a2,2,0,0,1,2.24-.18L279.07,353a2,2,0,0,1,.26,3.3l-78.77,63.39A2,2,0,0,1,199.31,420.13Zm-9-9.4,8.84,5L274.54,355l-8.82-5Z" transform="translate(-4.94 -28.6)"/></g><g id="raccoon_colour" data-name="raccoon colour"><path class="cls-7" d="M446.73,163.67s-65.73,18.67-92.4,34S305.49,261,305.49,261c-34.18,68-51.15,52.67-51.15,52.67s3.22,12,9.94,15.33,13.8,7.33,13.8,7.33h-13.8s27.39,39.33,77.39,50,160,7.26,188.67,6.3c19.36-.65,40.25-2.92,50.78-4.17l60-122.43c-7.84-13.9-25.67-42.51-46.07-59-28-22.67-66.08-43.23-96-41.69-20,1-45.29-21.64-45.29-21.64l12.67,20-28-10s7.19,8.67,11.26,13.33,8.74,4.67,8.74,4.67" transform="translate(-4.94 -28.6)"/><path class="cls-8" d="M594.63,339.8c-21.12,7.45-44.55,8.26-65.7.48-6.73-2.48-12.36-3.6-13.79-10.38-1.64-7.73-2.91-17-15.75-17.65-2.15-.12-10.38,15.13-24.1,5.83-2.77-1.88-3.33-4.13-6.41-5.07-4.23-1.3-11.18.84-14.63,2.67-6,3.17-9.85,8.31-9.91,15.33l-.83,3.73s-30.17,27.41-66.17,20-57-49.82-39.33-85.95S406,202.67,478.33,204s105.45,19.37,120,33.19C605.46,244,613,259.54,617,275.67" transform="translate(-4.94 -28.6)"/><circle class="cls-1" cx="396.39" cy="256.07" r="39"/><circle class="cls-1" cx="551.39" cy="254.57" r="39"/><path class="cls-1" d="M474.3,317.26c-1.27-1.22-2.38-3.13-4-3.88-2.59-1.24-4.67-.31-7.4.25-5.26,1.08-12.08,2.6-15.62,7-6.67,8.33-5.44,22.83,10,31,12.29,6.5,13.33,3,13.33,3s7,5,14.67,4.67a13.63,13.63,0,0,0,11-6.33s9.33.27,15-6.2,6.33-22.14,0-29.47c-2.56-3-8.87-4.77-12.71-5.09-1.37-.11-4.37,4.29-7,6.38a12.21,12.21,0,0,1-14,1.11A19,19,0,0,1,474.3,317.26Z" transform="translate(-4.94 -28.6)"/><path class="cls-7" d="M325.64,226.55s-4.05-37.55,6-63.22,21.7-15.67,36.37-9,35.58,23.06,35.58,23.06" transform="translate(-4.94 -28.6)"/><path class="cls-7" d="M540.09,173.77s2.57-5.77,21.91-18.1,36-24,44.67,15.33,5.88,53.49,5.88,53.49" transform="translate(-4.94 -28.6)"/><path class="cls-7" d="M648.65,407.63S652.08,379,659.42,378a8.26,8.26,0,0,1,9.33,5.33s2.67-7,7.67-7.33,6,3.33,6,3.33,3-6.28,7.67-3.35c8,5,9,37,2,46.69s-20,16.2-31,15.43-22.29-8.55-22.29-8.55,4.56,2.73,6,38.45c1.55,39.66-28.67,60.33-43.67,67.33s-32,23.67-120,28.6S369.57,481.1,369.57,481.1l-14.82-2.77c-14.67-.67-35.92-26.67-33.09-44.67s22.63-46.75,22.63-46.75,50.13,8.25,95.79,7,108.33-1.28,108.33-1.28Z" transform="translate(-4.94 -28.6)"/><path class="cls-7" d="M425.5,552.39S448,596.33,457.67,611s21,26.81,26.33,26.74,6.33-7,6.33-7,4,6.37,10,7a6.24,6.24,0,0,0,7.1-4.74s4.9,3.67,9.24,1-.33-28.67-3.67-38.67S507.43,562,507.43,562" transform="translate(-4.94 -28.6)"/><path class="cls-7" d="M574.14,548.49s15.19,29.16,25.86,46.84,25.67,29.67,30.67,28,3.33-6.67,3.33-6.67,6.42,4.67,11,.33,0-10,0-10,6.29,6,11,1-4.33-32.33-8.67-48.67L633.72,508" transform="translate(-4.94 -28.6)"/><path class="cls-1" d="M551.73,469c2.94,29-1.39,59.34-46.06,63.93-26.92,2.77-59-9.59-61.67-52.59-3-47.91,28.31-55.86,55.33-57.33C536,421,549.05,442.66,551.73,469Z" transform="translate(-4.94 -28.6)"/><polyline class="cls-1" points="571.2 378.07 483.06 378.09 575.87 360.96"/><path class="cls-8" d="M751.33,377s-3.33,7.33-8,9.92-24.33,7.42-38,10.08c-1.58.31-4.47.84-8.34,1.54l-1.1-10.77Z" transform="translate(-4.94 -28.6)"/><path class="cls-8" d="M649,407.09c-33.68,6-70.1,12.35-72.84,12.91-4.85,1-46.48,3-70.15,0s-18-13.32-18-13.32l102.15.08,61-11.3Z" transform="translate(-4.94 -28.6)"/><path d="M483.5,333.5c-3.27,3.18-3.4,8-8.44,8.89-.53.09,5.51,6.66,6.43,7.16,1.61.89,5.81,2.68,7.67,2.12,2-.61,2.57-2.82,3.08-4.61.2-.7,1.93-5.16,1.75-5.56-.42-.94-4.57-1.43-5.71-2.08C487.48,339,482.15,334.81,483.5,333.5Z" transform="translate(-4.94 -28.6)"/><path class="cls-9" d="M474,343c5.27-.1,8.08-1.26,12.75,2a11.42,11.42,0,0,1,4.32,5.21c-3.54,2.51-7.14,2.36-10.7.51C477.32,349.16,474.87,348.66,474,343Z" transform="translate(-4.94 -28.6)"/><path class="cls-10" d="M569,185.75c2.49-5.81,7.69-10.14,11.64-14.92,1-1.26,1.83-3.2,3.11-4.22,1.09-.86,2.5-.74,3.44-1.55,2.52,6.52,3.05,13.33,4.33,20.05.62,3.25,2.36,6.68,2.49,10,.13,3.12-.44,6.41-.53,9.62-1.93-.53-5.11-2.85-7-3.87-2.34-1.23-4.41-3.07-6.71-4.44a40.44,40.44,0,0,1-6.72-4.5A19.37,19.37,0,0,1,569,185.75Z" transform="translate(-4.94 -28.6)"/><path class="cls-10" d="M363.75,176.25c-1.53-.66-2.71-2.2-4.34-3a13.31,13.31,0,0,1-3.66-2.25c-2.89-2.7-3.3-2.17-4.93,1.49-3.23,7.27-3,14.72-5.26,22.12-1,3.38-1.12,6.67-1.43,10.15.19-2.15,7.79-5.4,9.52-6,3.36-1.08,6.13-2.85,9.41-4.31,2.47-1.1,5-2.13,7.45-3.19s5.15-1.93,7.29-3.48c-2.26-1.5-2.87-4.65-5.2-6.45C369.9,179.28,366.67,178,363.75,176.25Z" transform="translate(-4.94 -28.6)"/><path class="cls-11" d="M590.33,406.68l-14.19,0S609,285.5,613,280s10.78-10.85,32.07-14.76S763,253,775,252.33c22.38-1.33,22.11,14.79,22.11,14.79" transform="translate(-4.94 -28.6)"/><path class="cls-12" d="M751.33,377l-5.41,1-32.06,5.91c-1.52.28-17.72,2.51-17.72,4,0-3.48-2.43-9.06-5.28-11.21-3.16-2.39-6.2-.29-8.34,2.46-2-3.36-3.61-5.15-7.4-3-2.43,1.4-5.83,4.41-5.65,7.46-.73-3.59-2.95-5.42-6.6-5.62-5-.26-6.55,2.15-8.28,6.25a51,51,0,0,0-3.1,8.12c-.53,2.31-.22,2.67-2.3,3.46-2.85,1.08-6.51,1.2-9.5,1.75l-49.36,9.1S623.33,302.33,626,294s2-19,24-19.67,127-10,134.33-11S804,260,793,284.67,751.33,377,751.33,377Z" transform="translate(-4.94 -28.6)"/><path class="cls-1" d="M679.8,329.47c0-12,9.59-23.88,21.35-24.79,15.1-1.17,24.85,7.57,21.35,21.65-2.88,11.6-8.13,17.11-18.74,21.47C690.5,353.25,679.8,341.43,679.8,329.47Z" transform="translate(-4.94 -28.6)"/></g><g id="raccoon_shadows" data-name="raccoon shadows"><path class="cls-3" d="M440,154.67s8.33,6.67,14,9.67,11,6,11,6S379.67,186,344.67,225.67,302,315.33,292,319.67s-4,6.71-1.37,8.71,32.64,36.9,68,45.29c97,23,152.67,21.33,152.67,21.33s-67.67,6.67-143,16c-19,2.35-32.33,48.67-8.67,57s36,13.33,38,12,2.33-9,2.33-9,4.67,1,7.17-.67a117.43,117.43,0,0,1,11.6-6.4S411,514.5,473.7,540c73.67,30,135-10,135-10s7.56,59.62,16,69.33c13.83,15.92,21,7.17,21,7.17s0,13.17-4,13.17-8.33-3.67-8.33-3.67,3.67,4.33-3,6.67-22.33-8.67-37-38-20.67-35.33-20.67-35.33-24.67,9.67-39,11.33S472.33,563,472.33,563s4,29,16.33,48.33c2.94,4.61,15.67,21.67,15.67,21.67s-.33,5.67-3.33,5.67S489.33,633,489.33,633a6,6,0,0,1-3.5,4.4C478.29,640.78,460,619,443,586.33s-19.67-34.67-19.67-34.67-15-6.67-31.67-27-22.67-44-22.67-44a38.34,38.34,0,0,1-18.66-3.36c-10.35-4.68-21.81-15.17-25.31-26.2-7.37-23.28,7.49-44.81,10.53-49.81,3.67-6,10.77-12.63,10.77-12.63s-20.67-3.33-43.33-19a210.13,210.13,0,0,1-36.67-32l10.5-1.57S266.58,332,261.25,326s-5.92-11-5.92-11A20.78,20.78,0,0,0,269,311.33c6.67-4.67,33-44,38.33-55.67S326,230,326,230l-1.33-32s4,6,9,3.33,18-32.67,18-32.67S374.67,182,383,177s7.67-8.67,7.67-8.67l11,7.67a124.43,124.43,0,0,1,20-5.67c10.67-2,25-5.33,25-5.33Z" transform="translate(-4.94 -28.6)"/><path class="cls-3" d="M538.17,175l12.33-11.67s-4.17,8.5,5.67,7.83,33.67-9.39,33.67-9.39,1,36.39,10.5,42.89,10.83-7.83,10.83-7.83l1,26.5s-20.17-19.17-31.5-28-28.67-17.5-31.5-18.5S538.17,175,538.17,175Z" transform="translate(-4.94 -28.6)"/><path class="cls-3" d="M393.32,246.49S348.6,247.54,356,296.25c7.25,47.75,62,23.69,62,23.69s-38,.06-42.75-30.44S393.32,246.49,393.32,246.49Z" transform="translate(-4.94 -28.6)"/><path class="cls-3" d="M547.88,245.67s-45.11.13-37.71,48.83c7.25,47.75,65.21,22.71,65.21,22.71s-41.2,1-46-29.46S547.88,245.67,547.88,245.67Z" transform="translate(-4.94 -28.6)"/><path class="cls-3" d="M483.87,310.71S448,307.21,439,322.85s.75,29.65,8.5,33.15,21,4.25,21,4.25,5.75,5,11,5.25,17.75-10.75,17.75-10.75,2.5-6.75,5.75-9.5,9-7,9-7l-18.5,3,3.25,9.75s0,7.5-11.75,7.25-9-4-9-6.75,3.75-1.75,3.75-1.75l-4-7.25s-21-3.29-15.75-17.9S478.33,320,478.33,320s-2.46-2.08-2.21-4.87S483.87,310.71,483.87,310.71Z" transform="translate(-4.94 -28.6)"/><path class="cls-3" d="M471.75,373.75s9,2.5,16.25,1.25a30.43,30.43,0,0,0,11.5-4.25s-2,9.6-9.75,10.25C475,382.25,471.75,373.75,471.75,373.75Z" transform="translate(-4.94 -28.6)"/><path class="cls-3" d="M645.67,265.5s-28.33,3.5-33.5,16-37,125.5-37,125.5H488.5s-1.12.13-1,1.75,1.88,5.5,1.88,5.5S474.89,431,473.7,434.88s-.95,14,7.3,15.5,49.63.5,73.25-1.12,77-11.37,78.38-12.37,4.63-7.5,4.63-7.5,4.25,6.38,16.25,7.38S674.25,435,676,418s.75-31.5,3-33.25,7.5-1.75,7.5-1.75.25-3.5,1.75-3.5h6a8.93,8.93,0,0,0-6.75-3.56c-4.5-.19-5.5,2.81-5.5,2.81s-.75-2.87-4.5-2.81-8.25,5.19-8.25,5.19-3.25-6.75-9-5.19-14.58,8.56-14.58,8.56-25.28-2.56-21.17-58.75,27.25-51.5,27.25-51.5-10.78.5-14-3S645.67,265.5,645.67,265.5Z" transform="translate(-4.94 -28.6)"/></g><g id="raccoon_details" data-name="raccoon details"><path d="M482.33,263.17a1.5,1.5,0,0,1-1.45-1.13,14.18,14.18,0,0,1-.36-5.29,1.5,1.5,0,0,1,3,.51,11.49,11.49,0,0,0,.31,4,1.5,1.5,0,0,1-1.45,1.87Z" transform="translate(-4.94 -28.6)"/><path d="M489.67,269.5a1.5,1.5,0,0,1-1.5-1.5v-4.33a1.5,1.5,0,0,1,3,0V268A1.5,1.5,0,0,1,489.67,269.5Z" transform="translate(-4.94 -28.6)"/><path d="M472.33,268.5a1.5,1.5,0,0,1-1.46-1.18,36.42,36.42,0,0,1-.69-4.51,1.5,1.5,0,0,1,3-.27,33.48,33.48,0,0,0,.64,4.15,1.5,1.5,0,0,1-1.47,1.82Z" transform="translate(-4.94 -28.6)"/><path d="M472,286.83a1.5,1.5,0,0,1-1.5-1.5V282a1.5,1.5,0,0,1,3,0v3.33A1.5,1.5,0,0,1,472,286.83Z" transform="translate(-4.94 -28.6)"/><path d="M482,279.5a1.5,1.5,0,0,1-1.5-1.5v-2a1.5,1.5,0,0,1,3,0v2A1.5,1.5,0,0,1,482,279.5Z" transform="translate(-4.94 -28.6)"/><path d="M483,294.5a1.5,1.5,0,0,1-1.49-1.36,17.49,17.49,0,0,1,.37-5.49,1.5,1.5,0,0,1,2.92.71,14.33,14.33,0,0,0-.3,4.51,1.5,1.5,0,0,1-1.36,1.63Z" transform="translate(-4.94 -28.6)"/><path d="M490,290.17a1.5,1.5,0,0,1-1.49-1.36,17.29,17.29,0,0,1,.38-5.54,1.5,1.5,0,1,1,2.89.8,14.7,14.7,0,0,0-.29,4.46,1.5,1.5,0,0,1-1.35,1.64Z" transform="translate(-4.94 -28.6)"/><path d="M372.67,364.83a1.5,1.5,0,0,1-1.5-1.45c0-1.31-.15-2.57-.32-3.86a1.5,1.5,0,0,1,3-.39c.18,1.38.29,2.74.34,4.14a1.5,1.5,0,0,1-1.45,1.55Z" transform="translate(-4.94 -28.6)"/><path d="M383,367.17a1.5,1.5,0,0,1-1.47-1.19,19.1,19.1,0,0,1-.36-5.06,1.5,1.5,0,0,1,3,.18,16.11,16.11,0,0,0,.3,4.27,1.5,1.5,0,0,1-1.16,1.78A1.52,1.52,0,0,1,383,367.17Z" transform="translate(-4.94 -28.6)"/><path d="M390.33,366.5a1.5,1.5,0,0,1-1.5-1.5v-3.67a1.5,1.5,0,0,1,3,0V365A1.5,1.5,0,0,1,390.33,366.5Z" transform="translate(-4.94 -28.6)"/><path d="M562,359.83a1.5,1.5,0,0,1-1.49-1.32,10.17,10.17,0,0,1,.42-4.38,1.5,1.5,0,1,1,2.8,1.07,7.49,7.49,0,0,0-.25,3,1.5,1.5,0,0,1-1.31,1.67Z" transform="translate(-4.94 -28.6)"/><path d="M569.67,360.17a1.5,1.5,0,0,1-1.49-1.37,19.31,19.31,0,0,1,.37-5.84,1.5,1.5,0,0,1,2.91.74,16.52,16.52,0,0,0-.29,4.83,1.5,1.5,0,0,1-1.36,1.63Z" transform="translate(-4.94 -28.6)"/><path d="M577.67,359.83h-.15a1.5,1.5,0,0,1-1.34-1.64c.17-1.66.46-4,.67-5.41a1.5,1.5,0,0,1,3,.45c-.21,1.38-.49,3.65-.66,5.26A1.5,1.5,0,0,1,577.67,359.83Z" transform="translate(-4.94 -28.6)"/><path d="M365,164.5a1.5,1.5,0,0,1-1.21-.61,10.33,10.33,0,0,0-1.26-1.29A1.5,1.5,0,0,1,364,160a10.15,10.15,0,0,1,2.22,2.13A1.5,1.5,0,0,1,365,164.5Z" transform="translate(-4.94 -28.6)"/><path d="M378.33,172.17a1.49,1.49,0,0,1-.77-.21,18.66,18.66,0,0,1-2.54-1.81,1.5,1.5,0,0,1,1.94-2.29,15.68,15.68,0,0,0,2.13,1.52,1.5,1.5,0,0,1-.77,2.79Z" transform="translate(-4.94 -28.6)"/><path d="M379.67,178.83a1.49,1.49,0,0,1-.72-.19,8.32,8.32,0,0,1-2.46-2.05,1.5,1.5,0,1,1,2.36-1.85,5.38,5.38,0,0,0,1.54,1.28,1.5,1.5,0,0,1-.72,2.81Z" transform="translate(-4.94 -28.6)"/><path d="M389,177.17a1.5,1.5,0,0,1-1.26-.69,5.63,5.63,0,0,0-1.78-1.69,1.46,1.46,0,0,1-1.15-1.74,1.54,1.54,0,0,1,1.8-1.18c1.18.22,2.84,1.73,3.65,3a1.5,1.5,0,0,1-1.26,2.31Z" transform="translate(-4.94 -28.6)"/><path d="M553,171.5a1.5,1.5,0,0,1-1.24-2.35,5.53,5.53,0,0,1,3.15-2.26,1.5,1.5,0,1,1,.83,2.88,2.58,2.58,0,0,0-1.51,1.07A1.5,1.5,0,0,1,553,171.5Z" transform="translate(-4.94 -28.6)"/><path d="M561,172.5a1.5,1.5,0,0,1-1-2.63,37.14,37.14,0,0,1,3.13-2.44,1.5,1.5,0,0,1,1.71,2.47,34.15,34.15,0,0,0-2.87,2.23A1.49,1.49,0,0,1,561,172.5Z" transform="translate(-4.94 -28.6)"/><path d="M562,165.5a1.5,1.5,0,0,1-1.27-2.29,6.63,6.63,0,0,1,4.34-3,1.5,1.5,0,1,1,.54,3,3.69,3.69,0,0,0-2.33,1.65A1.5,1.5,0,0,1,562,165.5Z" transform="translate(-4.94 -28.6)"/><path d="M573,162.17a1.5,1.5,0,0,1-1.39-2.07,7.61,7.61,0,0,1,4.16-4.15,1.5,1.5,0,1,1,1.12,2.78,4.53,4.53,0,0,0-2.51,2.51A1.5,1.5,0,0,1,573,162.17Z" transform="translate(-4.94 -28.6)"/><path d="M321,249.83a1.5,1.5,0,0,1-.84-2.75,2.17,2.17,0,0,0,.73-1.17,1.5,1.5,0,1,1,2.88.83,5.11,5.11,0,0,1-1.94,2.83A1.49,1.49,0,0,1,321,249.83Z" transform="translate(-4.94 -28.6)"/><path d="M331,243.83a1.5,1.5,0,0,1-1.46-1.15c-.49-2.06.71-4.67,3.13-6.81a1.5,1.5,0,1,1,2,2.25c-1.69,1.49-2.39,3.07-2.2,3.86a1.5,1.5,0,0,1-1.46,1.85Z" transform="translate(-4.94 -28.6)"/><path d="M328.33,233.83a1.5,1.5,0,0,1-1.44-1.92,3.6,3.6,0,0,1,2.24-2.31,1.5,1.5,0,0,1,1.07,2.8c-.11,0-.37.16-.43.35A1.5,1.5,0,0,1,328.33,233.83Z" transform="translate(-4.94 -28.6)"/><path d="M340.33,230.5a1.5,1.5,0,0,1-1.49-1.31,4.12,4.12,0,0,1,2-4.13,1.5,1.5,0,0,1,1.58,2.55,1.13,1.13,0,0,0-.64,1.2,1.5,1.5,0,0,1-1.3,1.68Z" transform="translate(-4.94 -28.6)"/><path d="M332.33,453.17a1.49,1.49,0,0,1-1.13-.51,9.35,9.35,0,0,1-2.37-5.56,1.5,1.5,0,1,1,3-.2,6.37,6.37,0,0,0,1.63,3.78,1.5,1.5,0,0,1-1.13,2.49Z" transform="translate(-4.94 -28.6)"/><path d="M337,446.5a1.5,1.5,0,0,1-1.12-.5c-.61-.68-2.57-3-2.37-4.53a1.5,1.5,0,0,1,3,.17,9.55,9.55,0,0,0,1.62,2.36,1.5,1.5,0,0,1-1.12,2.5Zm-.51-4.63h0Z" transform="translate(-4.94 -28.6)"/><path d="M343.67,457.17a1.5,1.5,0,0,1-1.26-.68,6.26,6.26,0,0,0-1.6-1.58,1.5,1.5,0,1,1,1.71-2.46,9.18,9.18,0,0,1,2.4,2.42,1.5,1.5,0,0,1-1.26,2.32Z" transform="translate(-4.94 -28.6)"/><path d="M342.33,468.5h-.07a3.54,3.54,0,0,1-3.35-2.34,1.5,1.5,0,0,1,2.83-1c.07.2.29.31.65.33a1.5,1.5,0,0,1-.06,3Z" transform="translate(-4.94 -28.6)"/><path d="M408.33,520.5a1.49,1.49,0,0,1-.91-.31,19.23,19.23,0,0,1-3.62-3.62,1.5,1.5,0,0,1,2.4-1.8,16.2,16.2,0,0,0,3,3,1.5,1.5,0,0,1-.91,2.69Z" transform="translate(-4.94 -28.6)"/><path d="M411,531.83a1.49,1.49,0,0,1-.67-.16l-2.67-1.33a1.5,1.5,0,0,1,1.34-2.68l2.67,1.33a1.5,1.5,0,0,1-.67,2.84Z" transform="translate(-4.94 -28.6)"/><path d="M419,532.5a1.5,1.5,0,0,1-1-.39,4.72,4.72,0,0,0-1.57-.95,1.5,1.5,0,0,1-.37-3c1.27-.24,3.05.88,4,1.69a1.5,1.5,0,0,1-1,2.61Z" transform="translate(-4.94 -28.6)"/><path d="M424.33,543.17a1.49,1.49,0,0,1-.64-.14,14.1,14.1,0,0,1-6-5.23,1.5,1.5,0,1,1,2.54-1.59,11.1,11.1,0,0,0,4.7,4.11,1.5,1.5,0,0,1-.64,2.86Z" transform="translate(-4.94 -28.6)"/><path d="M463.67,507.83a1.49,1.49,0,0,1-.9-.3l-2.67-2a1.5,1.5,0,1,1,1.8-2.4l2.67,2a1.5,1.5,0,0,1-.9,2.7Z" transform="translate(-4.94 -28.6)"/><path d="M463,518.5a1.5,1.5,0,0,1-1.25-.68,21.75,21.75,0,0,0-2.49-3.12,1.5,1.5,0,1,1,2.16-2.08,24.68,24.68,0,0,1,2.84,3.55A1.5,1.5,0,0,1,463,518.5Z" transform="translate(-4.94 -28.6)"/><path d="M473,519.17a1.49,1.49,0,0,1-.56-.11,14.07,14.07,0,0,1-5.26-3.76,1.5,1.5,0,1,1,2.3-1.92,11.06,11.06,0,0,0,4.07,2.9,1.5,1.5,0,0,1-.56,2.89Z" transform="translate(-4.94 -28.6)"/><path d="M479,527.17a1.5,1.5,0,0,1-.78-.22,9.84,9.84,0,0,0-2.89-1.15,1.5,1.5,0,0,1,.67-2.93,12.91,12.91,0,0,1,3.78,1.51,1.5,1.5,0,0,1-.78,2.78Z" transform="translate(-4.94 -28.6)"/><path d="M470.33,598.5a1.5,1.5,0,0,1-1.33-.8c-.71-1.35-1.35-2.63-2-4.06a1.5,1.5,0,1,1,2.71-1.29c.66,1.38,1.28,2.64,2,3.94a1.5,1.5,0,0,1-1.33,2.2Z" transform="translate(-4.94 -28.6)"/><path d="M475.67,597.17a1.49,1.49,0,0,1-.82-.24,7.75,7.75,0,0,1-3.33-5,1.5,1.5,0,0,1,3-.51,4.79,4.79,0,0,0,2,3,1.5,1.5,0,0,1-.82,2.76Z" transform="translate(-4.94 -28.6)"/><path d="M483.67,595.83a1.5,1.5,0,0,1-1.38-.92,43.73,43.73,0,0,0-2.58-5.15,1.5,1.5,0,0,1,2.59-1.52,46.89,46.89,0,0,1,2.76,5.51,1.5,1.5,0,0,1-1.38,2.08Z" transform="translate(-4.94 -28.6)"/><path d="M611.67,577.17a1.5,1.5,0,0,1-1.27-.7,15,15,0,0,1-2.23-6.68,1.5,1.5,0,0,1,3-.24,11.94,11.94,0,0,0,1.77,5.32,1.5,1.5,0,0,1-1.27,2.3Z" transform="translate(-4.94 -28.6)"/><path d="M617.67,576.5a1.49,1.49,0,0,1-1.08-.46,21.7,21.7,0,0,1-4.31-6.47,1.5,1.5,0,1,1,2.78-1.14,18.56,18.56,0,0,0,3.69,5.53,1.5,1.5,0,0,1-1.08,2.54Z" transform="translate(-4.94 -28.6)"/><path d="M626.33,576.5a1.5,1.5,0,0,1-1.28-.72,56.42,56.42,0,0,1-4.11-8.23,1.5,1.5,0,0,1,2.79-1.1,53.32,53.32,0,0,0,3.89,7.77,1.5,1.5,0,0,1-1.28,2.28Z" transform="translate(-4.94 -28.6)"/><path d="M673.67,423.83a1.5,1.5,0,0,1-.72-2.82c1.06-.58,2.18-1.25,3.23-1.94a1.5,1.5,0,1,1,1.64,2.51c-1.12.73-2.31,1.45-3.44,2.06A1.49,1.49,0,0,1,673.67,423.83Z" transform="translate(-4.94 -28.6)"/><path d="M669,433.83a1.5,1.5,0,0,1,0-3,3.73,3.73,0,0,0,2.86-1.44,1.5,1.5,0,0,1,2.34,1.88,6.77,6.77,0,0,1-5.14,2.56Z" transform="translate(-4.94 -28.6)"/><path d="M679,427.83a1.5,1.5,0,0,1-1.25-2.33l2.67-4a1.5,1.5,0,1,1,2.5,1.66l-2.67,4A1.5,1.5,0,0,1,679,427.83Z" transform="translate(-4.94 -28.6)"/><path d="M537.25,404a1.5,1.5,0,0,1-.3-3l42.37-8.58a1.5,1.5,0,0,1,.6,2.94l-26.74,5.42,24.55-.3a1.52,1.52,0,0,1,1.52,1.48,1.5,1.5,0,0,1-1.48,1.52l-40.5.5Z" transform="translate(-4.94 -28.6)"/><path d="M541.75,415.63H500.5a1.5,1.5,0,0,1,0-3h41.25a1.5,1.5,0,0,1,0,3Z" transform="translate(-4.94 -28.6)"/><path d="M552.45,415.63H548a1.5,1.5,0,0,1,0-3h4.45a1.5,1.5,0,0,1,0,3Z" transform="translate(-4.94 -28.6)"/><path d="M568.2,416.83h-8.7a2,2,0,0,1,0-4h8.7a2,2,0,0,1,0,4Z" transform="translate(-4.94 -28.6)"/><path d="M725.08,388.71a2,2,0,0,1-.43-4L732.4,383a2,2,0,0,1,.86,3.91l-7.75,1.71A2,2,0,0,1,725.08,388.71Z" transform="translate(-4.94 -28.6)"/><path d="M740.5,384.5h-.17a1.5,1.5,0,1,1,0-3h.17a1.5,1.5,0,0,1,0,3Z" transform="translate(-4.94 -28.6)"/><path d="M608.33,397.5a1.49,1.49,0,0,1-.84-.26,6.92,6.92,0,0,1-3.32-6,1.5,1.5,0,1,1,3,.28,4,4,0,0,0,2,3.29,1.5,1.5,0,0,1-.84,2.74Z" transform="translate(-4.94 -28.6)"/><path d="M612.67,394.5a1.49,1.49,0,0,1-1-.38,10.3,10.3,0,0,1-2.8-4.13,1.5,1.5,0,0,1,2.93-.66,8.36,8.36,0,0,0,1.87,2.55,1.5,1.5,0,0,1-1,2.62Z" transform="translate(-4.94 -28.6)"/><path d="M744,370.17a1.5,1.5,0,0,1-.64-2.86,9.53,9.53,0,0,0,4.88-5.43,1.5,1.5,0,1,1,2.86.9,12.49,12.49,0,0,1-6.46,7.24A1.49,1.49,0,0,1,744,370.17Z" transform="translate(-4.94 -28.6)"/><path d="M746.67,374.5a1.5,1.5,0,0,1-.34-3,1.83,1.83,0,0,0,1.28-1.1,1.5,1.5,0,1,1,2.79,1.11,4.83,4.83,0,0,1-3.38,2.9A1.5,1.5,0,0,1,746.67,374.5Z" transform="translate(-4.94 -28.6)"/></g><g id="Raccon_lineart" data-name="Raccon lineart"><path d="M641.07,268a2,2,0,0,1-1.74-1c-6.73-11.93-24.66-41.51-45.58-58.45-25.9-21-64.36-42.82-94.68-41.25-.47,0-1,0-1.43,0-12.74,0-27-8.41-36-14.88L468,162.6a2,2,0,0,1-2.36,3L444.58,158c2.18,2.59,4.68,5.55,6.53,7.67,3.37,3.86,7.09,4,7.25,4a2,2,0,0,1,0,4c-.23,0-5.63-.06-10.24-5.35-4-4.63-11.22-13.28-11.3-13.37a2,2,0,0,1,2.21-3.16l22.53,8L452,144.74a2,2,0,0,1,3-2.56c.25.22,24.94,22.12,43.85,21.13,31.42-1.6,70.93,20.71,97.41,42.14,21.46,17.37,39.7,47.47,46.55,59.6a2,2,0,0,1-1.74,3Z" transform="translate(-4.94 -28.6)"/><path d="M459.12,395.9c-43.54,0-90-1.67-117.87-7.61-50.19-10.71-78.33-50.41-78.61-50.81a2,2,0,0,1,1.64-3.14h6c-2.12-1.13-4.52-2.38-6.86-3.54-7.44-3.69-10.85-16.08-11-16.61a2,2,0,0,1,3.27-2s1.91,1.53,5.74.73c6.57-1.38,20.81-10.08,42.28-52.81.89-1.92,22.73-48.7,49.64-64.17,26.57-15.28,90.15-33.43,92.85-34.19a2,2,0,0,1,1.09,3.85c-.66.19-65.8,18.78-91.95,33.81-25.8,14.84-47.81,62-48,62.44-21.35,42.48-36.48,53.38-45.41,55.06a13.46,13.46,0,0,1-4.27.15c1.54,3.74,4.15,8.48,7.55,10.16,6.69,3.32,13.82,7.34,13.9,7.38a2,2,0,0,1-1,3.74h-9.73c7.69,9.44,33.36,37.43,73.73,46,44.35,9.46,136.94,8,188.18,6.26,19-.64,39.86-2.88,50.61-4.16a2,2,0,1,1,.47,4c-10.81,1.29-31.81,3.54-50.95,4.19C511,395.29,485.58,395.9,459.12,395.9Z" transform="translate(-4.94 -28.6)"/><path d="M395.84,489.18c-5,0-11.84-2-19.41-4.14s-15.38-4.42-21.52-4.7c-7.2-.33-16-6-23.46-15.18-6.69-8.2-13.23-20.86-11.51-31.8,2.87-18.24,22.14-46.39,23-47.58a2,2,0,1,1,3.29,2.27c-.2.28-19.57,28.59-22.3,45.93-1.27,8.07,2.82,19,10.66,28.65,6.68,8.18,14.56,13.44,20.55,13.71,6.61.3,14.66,2.62,22.44,4.85,8.55,2.46,18.25,5.25,21.48,3.41,5.36-3.06,2.94-8.54,2.84-8.77a2,2,0,0,1,2.63-2.65c1.27.56,5.34,1.81,7.27.27,1.13-.91-.62-4.84-2.37-7.26A2,2,0,0,1,411,463h8a4,4,0,0,0,.54-1.74c.51-3.77-1.17-10.42-6.06-16.12-10.75-12.54-37.66-13.46-37.93-13.47a2,2,0,0,1,.11-4c1.18,0,29,1,40.86,14.86,6.56,7.65,8.38,17.25,6.3,21.76A4.21,4.21,0,0,1,419,467h-4.47c1.46,2.93,2.74,7.14-.28,9.56-2.35,1.88-5.44,1.83-7.82,1.37A10.19,10.19,0,0,1,401,488.07,10.35,10.35,0,0,1,395.84,489.18Z" transform="translate(-4.94 -28.6)"/><path d="M474.36,566.13c-42.16,0-68.47-21.73-83.35-40.52a134.27,134.27,0,0,1-23.12-44,2,2,0,0,1,3.86-1,132.82,132.82,0,0,0,22.48,42.65c22,27.68,51.26,40.7,87,38.7,74.83-4.19,98.29-17.08,112.31-24.78,2.43-1.33,4.73-2.6,7-3.63,10.33-4.82,43.91-23.78,42.51-65.45-1.29-38.42-13.47-55-13.6-55.19a2,2,0,0,1,3.19-2.42c.53.7,13.07,17.63,14.41,57.48a68,68,0,0,1-16.17,47.27,86.55,86.55,0,0,1-28.65,21.95c-2.11,1-4.25,2.16-6.72,3.52-14.32,7.86-38.28,21-114,25.27Q477.83,566.13,474.36,566.13Z" transform="translate(-4.94 -28.6)"/><path d="M663.08,440.16q-.95,0-1.88-.06c-11.41-.8-22.81-8.57-23.29-8.9a2,2,0,0,1,2.27-3.29c.11.08,11,7.48,21.3,8.2s22.59-5.43,29.24-14.61c4.07-5.62,5.56-21.25,3.19-33.45-1-5.4-2.74-9.18-4.63-10.37a2.22,2.22,0,0,0-1.91-.4c-1.44.42-2.64,2.41-2.89,2.92a2,2,0,0,1-3.73-.34c-.1-.31-.81-2.08-3.94-1.86s-5.36,4.54-5.93,6a1.94,1.94,0,0,1-1.93,1.29,2,2,0,0,1-1.85-1.4c-.16-.47-1.74-4.69-7.16-4-3.47.47-7.78,16.89-9.62,31.93a2,2,0,1,1-4-.49c1-8,4.83-34.28,13-35.41a10.26,10.26,0,0,1,9.49,3.27c1.53-2.32,4.07-5,7.65-5.28a8.14,8.14,0,0,1,6.11,1.84,7.9,7.9,0,0,1,3.6-2.41,6.24,6.24,0,0,1,5.15.85c3.68,2.31,5.53,8.34,6.43,13,2.31,11.88,1.3,29.41-3.88,36.56C686.94,433.52,674.23,440.16,663.08,440.16Z" transform="translate(-4.94 -28.6)"/><path d="M560.36,347.87c-27.3,0-44.66-11.54-45.65-12.21a2,2,0,0,1,2.25-3.3c.31.21,32.24,21.34,77,5.56a2,2,0,1,1,1.33,3.77A104.65,104.65,0,0,1,560.36,347.87Z" transform="translate(-4.94 -28.6)"/><path d="M390,358a64.91,64.91,0,0,1-13.11-1.33c-17.57-3.61-32.41-15.39-40.72-32.32a63.72,63.72,0,0,1,0-56.46c20.18-41.26,76-67.15,142.17-65.91,72.34,1.33,105.92,19.08,121.35,33.73,7.4,7,15.12,22.88,19.21,39.45a2,2,0,1,1-3.88,1c-3.86-15.65-11.29-31.07-18.08-37.51C582,224.47,549.35,207.31,478.3,206c-64.63-1.18-119,23.8-138.5,63.67a59.75,59.75,0,0,0,0,52.94c7.76,15.81,21.59,26.8,37.94,30.17,34.55,7.11,64.13-19.26,64.42-19.53a2,2,0,0,1,2.69,3C443.74,337.22,420.44,358,390,358Z" transform="translate(-4.94 -28.6)"/><path d="M401.33,325.67a41,41,0,1,1,41-41A41,41,0,0,1,401.33,325.67Zm0-78a37,37,0,1,0,37,37A37,37,0,0,0,401.33,247.67Z" transform="translate(-4.94 -28.6)"/><path d="M556.33,324.17a41,41,0,1,1,41-41A41,41,0,0,1,556.33,324.17Zm0-78a37,37,0,1,0,37,37A37,37,0,0,0,556.33,246.17Z" transform="translate(-4.94 -28.6)"/><path d="M498.53,535.3c-14.51,0-28-4.49-37.69-12.75-11.36-9.63-17.7-23.79-18.83-42.09s2.68-32.67,11.36-42.42c12.18-13.69,32-16.28,45.86-17,17.61-1,31.23,3.41,40.49,13,7.76,8,12.47,19.74,14,34.81,2.64,26,.55,61.14-47.84,66.12A71.89,71.89,0,0,1,498.53,535.3Zm5.35-110.42c-1.44,0-2.92,0-4.43.12-13.14.72-31.9,3.12-43.09,15.7-7.94,8.93-11.43,22.22-10.36,39.51s6.93,30.39,17.43,39.29,25.86,13.1,42,11.44c44.33-4.56,46.95-35.39,44.27-61.74h0C546.75,439.77,531.33,424.87,503.87,424.87Z" transform="translate(-4.94 -28.6)"/><path d="M501.26,639.78c-.36,0-.73,0-1.12-.06-3.93-.39-7.05-2.8-9-4.86-1.24,2.46-3.47,4.82-7.06,4.87H484c-7.19,0-19.55-14.87-28-27.64-9.62-14.59-31.35-57-32.27-58.8a2,2,0,0,1,3.56-1.82c.22.44,22.56,44,32.05,58.42,10.53,16,21,25.84,24.61,25.84h0c3.54,0,4.35-5,4.38-5.26a2,2,0,0,1,3.67-.77c0,.05,3.57,5.55,8.5,6,4.08.42,4.86-2.79,4.94-3.15a2,2,0,0,1,3.16-1.2s3.88,2.8,7,.9c2.45-2.39-.71-24.93-4.52-36.33-3.37-10.1-5.57-32.86-5.66-33.82a2,2,0,1,1,4-.38c0,.23,2.25,23.27,5.48,32.93,2,6,9.37,37,2.82,41-3.46,2.13-7.08,1.17-9.31.15A8,8,0,0,1,501.26,639.78Z" transform="translate(-4.94 -28.6)"/><path d="M629.68,625.47c-7.43,0-21.67-13-31.39-29.11-10.58-17.52-25.77-46.65-25.92-46.94a2,2,0,1,1,3.55-1.85c.15.29,15.28,29.31,25.79,46.73C613,612.93,627.09,622.44,630,621.44a3.09,3.09,0,0,0,2.06-4.15,2,2,0,0,1,3.08-2.23c.2.15,5.15,3.63,8.5.49s0-7.1-.18-7.28a2,2,0,0,1,2.93-2.71c.74.7,3.19,2.51,5.37,2.43a3.83,3.83,0,0,0,2.75-1.35c3.08-3.3-2.93-24.62-6.52-37.35-1-3.38-1.85-6.57-2.62-9.44l-13.61-51.3a2,2,0,1,1,3.87-1l13.61,51.3c.75,2.84,1.65,6,2.6,9.38,6.17,21.88,9.89,36.56,5.6,41.16a7.83,7.83,0,0,1-5.57,2.62,9.25,9.25,0,0,1-2.84-.39,8,8,0,0,1-2.65,6.86c-3.21,3-7.23,2.69-10.28,1.56a6.78,6.78,0,0,1-4.83,5.21A5.1,5.1,0,0,1,629.68,625.47Z" transform="translate(-4.94 -28.6)"/><path d="M325.64,228.56a2,2,0,0,1-2-1.79c-.17-1.55-4-38.34,6.11-64.16,3.75-9.58,7.93-15,13.17-17,6.6-2.55,13.47.84,20.74,4.44,1.67.83,3.4,1.68,5.15,2.48,14.72,6.69,35.12,22.63,36,23.31a2,2,0,1,1-2.47,3.15c-.21-.16-20.9-16.32-35.17-22.81-1.81-.82-3.57-1.69-5.27-2.53-6.75-3.33-12.57-6.22-17.53-4.3-4.06,1.57-7.62,6.39-10.88,14.74-9.75,24.92-5.9,61.91-5.86,62.28a2,2,0,0,1-1.77,2.2Z" transform="translate(-4.94 -28.6)"/><path d="M612.55,226.49a2,2,0,0,1-.39,0,2,2,0,0,1-1.58-2.35c0-.13,2.56-14.44-5.87-52.67-3.14-14.27-7.45-22.36-13.17-24.72-7.17-3-16.89,3.25-27.19,9.83l-1.28.82c-18.17,11.59-21.15,17.22-21.18,17.27a2,2,0,0,1-2.65.93,2,2,0,0,1-1-2.6c.29-.65,3.37-6.67,22.66-19l1.28-.82C573.4,146,584,139.24,593.08,143c7.11,2.94,12,11.7,15.54,27.56,8.66,39.29,6,53.71,5.89,54.31A2,2,0,0,1,612.55,226.49Z" transform="translate(-4.94 -28.6)"/><path d="M484.59,361.35c-6,0-11.38-2.77-13.78-4.21l-.16.07c-2.67,1.12-7.34-.11-14.25-3.77-7.85-4.15-13-10.36-14.47-17.49a19.87,19.87,0,0,1,3.84-16.53c7-8.76,31.19-9.67,34.14-9.75s26.18-1.46,32.94,6.36c7.19,8.32,6.09,25.13,0,32.09-5.06,5.77-12.57,6.71-15.42,6.86a15.63,15.63,0,0,1-12,6.35Zm-13.93-8.68a2,2,0,0,1,1.16.37c.06,0,6.57,4.6,13.42,4.3a11.6,11.6,0,0,0,9.34-5.31,2,2,0,0,1,1.81-1c.07,0,8.49.14,13.44-5.52s5.79-20.14,0-26.84c-4.66-5.39-23-5.42-29.69-5h-.08c-7,.18-26.17,2-31.16,8.25a15.89,15.89,0,0,0-3,13.22c1.23,5.94,5.64,11.18,12.42,14.77,7.67,4.06,10.22,3.78,10.74,3.65a2,2,0,0,1,1.66-.88Zm-1.92,1.43h0Zm0,0h0ZM480,311.67h0Z" transform="translate(-4.94 -28.6)"/><path d="M484.57,324.18c-8,0-16.15-10-16.5-10.39a2,2,0,0,1,3.11-2.52c2,2.52,8.34,8.9,13.38,8.9h.33c5.07-.29,10-6.58,11.54-9a2,2,0,0,1,3.4,2.1c-.26.42-6.52,10.4-14.71,10.87Z" transform="translate(-4.94 -28.6)"/><path d="M471,344.05q-.73,0-1.5-.06c-17.29-1.36-19.18-14.61-19.2-14.74a2,2,0,0,1,4-.51c.06.4,1.59,10.16,15.55,11.26,3.38.27,6-.57,8-2.54,5-4.92,4.56-15.07,4.55-15.18a2,2,0,1,1,4-.21c0,.49.57,12.08-5.75,18.25A13.3,13.3,0,0,1,471,344.05Z" transform="translate(-4.94 -28.6)"/><path d="M498.13,344.06c-5.62,0-9.83-1.76-12.54-5.23-5.11-6.56-2.63-16.72-2.52-17.15a2,2,0,0,1,3.88,1c0,.1-2.11,8.72,1.81,13.73,1.91,2.44,5.06,3.68,9.38,3.68,4.62,0,8-1.06,10.06-3.14a7.09,7.09,0,0,0,2.07-4.74,2,2,0,0,1,1.94-2h.06a2,2,0,0,1,2,1.91,11.16,11.16,0,0,1-3.13,7.59C508.29,342.57,503.92,344.06,498.13,344.06Z" transform="translate(-4.94 -28.6)"/><path d="M484.84,353c-7.7,0-11.52-6.77-12.48-10.46a2,2,0,0,1,3.87-1c.08.32,2.21,7.87,9.15,7.45,6.54-.37,6.55-6.6,6.53-7.31a2,2,0,0,1,4-.14c.14,3.75-1.83,11-10.3,11.44Z" transform="translate(-4.94 -28.6)"/><path d="M568,190a2,2,0,0,1-1.68-3.08c.05-.08,5.28-8.16,11.69-16.15a88.16,88.16,0,0,1,16.17-14.89,2,2,0,0,1,2.29,3.28c-.09.06-9.18,6.44-15.33,14.11-6.28,7.83-11.4,15.74-11.45,15.82A2,2,0,0,1,568,190Z" transform="translate(-4.94 -28.6)"/><path d="M376.84,189.19a2,2,0,0,1-1.4-.58c-.05,0-5.11-5-12.47-10.88a182.51,182.51,0,0,0-18.62-12.33,2,2,0,1,1,2-3.47,182.8,182.8,0,0,1,19.12,12.67c7.54,6,12.58,11,12.79,11.16a2,2,0,0,1-1.4,3.42Z" transform="translate(-4.94 -28.6)"/><path d="M590.33,408.68a2,2,0,0,1-1.91-2.6c.33-1,33-104.45,35.67-112.69.34-1.07.63-2.18.93-3.36,2-7.61,4.38-17.08,24.92-17.7,22.11-.67,127.43-10.07,134.12-11l.58-.08c4.27-.59,10.12-1.4,13.11,2.58,2.88,3.83,1.95,10.7-2.93,21.63-10.88,24.39-41.37,91.67-41.67,92.34A2,2,0,0,1,751.7,379l-54.32,10a2,2,0,1,1-.72-3.93l53.29-9.83c3.77-8.32,31.07-68.58,41.23-91.37,5.38-12.07,4.43-16.21,3.38-17.6-1.58-2.1-6.08-1.47-9.36-1l-.59.08c-6.71.92-112.37,10.35-134.54,11-17.53.53-19.29,7.41-21.16,14.7-.3,1.18-.62,2.4-1,3.58-2.37,7.41-29.11,91.94-34.66,109.5l57.59-10.62a2,2,0,1,1,.72,3.93L590.7,408.65A2,2,0,0,1,590.33,408.68Z" transform="translate(-4.94 -28.6)"/><path d="M590.33,408.68h0l-14.19,0a2,2,0,0,1-1.93-2.52c3.37-12.44,33-121.68,37.14-127.32s11-11.45,33.33-15.55c21.19-3.89,118-12.21,130.2-12.94,8.46-.5,14.92,1.31,19.18,5.4a16.62,16.62,0,0,1,5,11.42,2,2,0,0,1-2,2h0a2,2,0,0,1-2-2,12.77,12.77,0,0,0-3.86-8.51c-3.43-3.25-8.87-4.69-16.13-4.25-12.15.72-108.64,9-129.71,12.88s-27.19,9-30.82,14c-2.85,4.19-22.72,75.18-35.83,123.49h11.58a2,2,0,0,1,0,4Z" transform="translate(-4.94 -28.6)"/><path d="M697.16,351.16a17.29,17.29,0,0,1-9.72-3,22.91,22.91,0,0,1-9.64-18.69c0-13.31,10.84-25.83,23.2-26.79,8.78-.68,16,1.74,20.27,6.82,3.78,4.47,4.88,10.46,3.18,17.31-3,11.89-8.36,18.08-19.92,22.84A19.32,19.32,0,0,1,697.16,351.16Zm6.6-44.59q-1.2,0-2.46.1c-10.39.81-19.51,11.46-19.51,22.8a18.82,18.82,0,0,0,7.87,15.37A13.61,13.61,0,0,0,703,345.95c10.33-4.25,14.93-9.51,17.56-20.11,1.38-5.56.57-10.32-2.35-13.76S710,306.57,703.76,306.57Z" transform="translate(-4.94 -28.6)"/><path d="M697,400.54a2,2,0,0,1-.35-4c3.86-.7,6.74-1.23,8.32-1.54,14.3-2.79,33.18-7.53,37.41-9.87,3.34-1.85,6.29-7.12,7.15-9a2,2,0,0,1,3.64,1.66c-.15.32-3.67,8-8.85,10.84s-26.14,7.87-38.58,10.3c-1.59.31-4.48.84-8.37,1.55A2,2,0,0,1,697,400.54Z" transform="translate(-4.94 -28.6)"/><path d="M538.83,423.57A283.3,283.3,0,0,1,505.75,422c-10.56-1.34-17.1-4.34-19.44-8.92a8.18,8.18,0,0,1-.07-7.35,2,2,0,0,1,3.52,1.91,4.19,4.19,0,0,0,.14,3.69c1,1.85,4.41,5.19,16.34,6.7,23.21,2.94,64.48,1.06,69.49,0,2.11-.43,23.68-4.24,48.66-8.65l24.24-4.28a2,2,0,0,1,.7,3.94l-24.24,4.28c-24.95,4.4-46.49,8.2-48.54,8.63C573.44,422.6,556.74,423.57,538.83,423.57Z" transform="translate(-4.94 -28.6)"/><path d="M488,408.68a2,2,0,0,1-.36-4l92.81-17.12a2,2,0,0,1,.73,3.93l-71.29,13.15h66.26a2,2,0,0,1,0,4Z" transform="translate(-4.94 -28.6)"/><path d="M343.19,208H343a2,2,0,0,1-1.8-2.18c0-.43,1-10.59,2.18-16.5s6-21.87,6.23-22.54a2,2,0,1,1,3.83,1.17c0,.16-5,16.45-6.13,22.16s-2.11,16-2.12,16.09A2,2,0,0,1,343.19,208Z" transform="translate(-4.94 -28.6)"/><path d="M595,209a2,2,0,0,1-2-1.87c0-.15-1-14.85-2.11-22.64s-4.76-20.47-4.8-20.6a2,2,0,1,1,3.84-1.11c.15.53,3.79,13.14,4.92,21.15s2.1,22.33,2.14,22.93a2,2,0,0,1-1.86,2.13Z" transform="translate(-4.94 -28.6)"/><circle cx="421.22" cy="264.57" r="8.5"/><circle cx="563.09" cy="265.4" r="8.5"/><path d="M391.83,230.83a2,2,0,0,1-1.46-3.37c.23-.25,5.77-6.08,11.4-7.72,5.86-1.7,15.84,4.41,17,5.12a2,2,0,0,1-2.13,3.39C413,226,406,222.67,402.89,223.59c-4.57,1.33-9.55,6.56-9.6,6.62A2,2,0,0,1,391.83,230.83Z" transform="translate(-4.94 -28.6)"/><path d="M568,225a2,2,0,0,1-1.33-.5c-2-1.79-8.19-6.28-12.33-5.53a37.63,37.63,0,0,0-10.83,4.08,2,2,0,0,1-2-3.44A41.12,41.12,0,0,1,553.65,215c6.8-1.22,14.8,5.68,15.69,6.47A2,2,0,0,1,568,225Z" transform="translate(-4.94 -28.6)"/><circle class="cls-1" cx="566.31" cy="261.9" r="2.5"/><circle class="cls-1" cx="425.43" cy="261.9" r="2.5"/></g></svg>