<svg width="371" height="302" viewBox="0 0 371 302" fill="none" xmlns="http://www.w3.org/2000/svg">
<path d="M79.9395 3.4606L75.4473 75.1403L53.1816 76.1168L53.377 38.3239L43.3184 68.7926H34.7246L27.0098 41.5465L26.9121 73.1872L4.35352 73.8708L5.33008 6.39028L30.4277 5.41372L40.3887 37.7379L53.6699 3.4606H79.9395Z" fill="black"/>
<path d="M144.246 70.4528L120.027 73.5778L117.098 62.5426H105.965L103.523 73.5778L78.6211 71.1364L98.0547 6.09731L125.203 4.73013L144.246 70.4528ZM115.34 47.6012L111.629 30.609L108.016 47.6012H115.34Z" fill="black"/>
<path d="M203.035 63.7145C201.505 65.6351 199.617 67.3115 197.371 68.7438C195.125 70.1761 192.716 71.3642 190.145 72.3083C187.573 73.2523 184.936 73.9684 182.234 74.4567C179.533 74.9124 176.961 75.1403 174.52 75.1403C169.799 75.1403 165.454 74.3428 161.482 72.7477C157.511 71.1527 154.077 68.9391 151.18 66.1071C148.315 63.2425 146.069 59.8408 144.441 55.902C142.814 51.9632 142 47.6663 142 43.0114C142 39.4632 142.407 36.0127 143.221 32.6598C144.035 29.3069 145.19 26.1657 146.688 23.236C148.217 20.3063 150.073 17.6208 152.254 15.1793C154.435 12.7379 156.909 10.6383 159.676 8.88052C162.443 7.12271 165.47 5.77179 168.758 4.82778C172.078 3.85122 175.594 3.36294 179.305 3.36294C180.704 3.36294 182.202 3.42804 183.797 3.55825C185.392 3.65591 186.971 3.85122 188.533 4.14419C190.128 4.40461 191.674 4.77896 193.172 5.26724C194.669 5.75552 196.036 6.35773 197.273 7.07388L195.906 25.7262C194.083 25.0426 192.195 24.5869 190.242 24.359C188.322 24.0986 186.434 23.9684 184.578 23.9684C181.974 23.9684 179.533 24.3265 177.254 25.0426C175.008 25.7262 173.038 26.7516 171.346 28.1188C169.686 29.486 168.367 31.195 167.391 33.2458C166.414 35.2965 165.926 37.6728 165.926 40.3747C165.926 42.0674 166.154 43.7112 166.609 45.3063C167.065 46.8688 167.749 48.2685 168.66 49.5055C169.604 50.7099 170.76 51.6865 172.127 52.4352C173.527 53.1839 175.138 53.5583 176.961 53.5583C178.198 53.5583 179.467 53.3955 180.77 53.07C182.104 52.7444 183.243 52.1911 184.188 51.4098L184.383 47.6012L172.664 47.4059L173.25 32.7575C178.1 32.5947 182.951 32.4645 187.801 32.3668C192.651 32.2366 197.534 32.0739 202.449 31.8786L203.035 63.7145Z" fill="black"/>
<path d="M331.502 7.95278L329.744 28.5583C328.8 28.2978 327.872 28.1188 326.961 28.0211C326.049 27.9235 325.122 27.8747 324.178 27.8747C321.867 27.8747 319.653 28.1676 317.537 28.7536C315.454 29.3395 313.598 30.2347 311.971 31.4391C310.376 32.6435 309.09 34.1735 308.113 36.029C307.169 37.8519 306.697 40.0166 306.697 42.5231C306.697 44.346 306.958 45.9411 307.479 47.3083C308.032 48.6429 308.797 49.7659 309.773 50.6774C310.783 51.5563 311.987 52.2236 313.387 52.6793C314.819 53.1351 316.398 53.3629 318.123 53.3629C319.327 53.3629 320.564 53.249 321.834 53.0211C323.104 52.7607 324.373 52.4189 325.643 51.9958C326.912 51.5726 328.133 51.0843 329.305 50.5309C330.477 49.9775 331.567 49.3916 332.576 48.7731L331.795 71.7223C330.525 72.3734 329.158 72.9593 327.693 73.4801C326.229 73.9684 324.715 74.3916 323.152 74.7497C321.622 75.1403 320.076 75.4333 318.514 75.6286C316.984 75.8239 315.519 75.9215 314.119 75.9215C309.497 75.9215 305.281 75.0589 301.473 73.3336C297.697 71.6084 294.441 69.2646 291.707 66.3024C289.005 63.3076 286.906 59.8408 285.408 55.902C283.911 51.9632 283.162 47.764 283.162 43.3043C283.162 37.9658 283.911 32.9853 285.408 28.3629C286.938 23.7405 289.168 19.7366 292.098 16.3512C295.06 12.9333 298.706 10.264 303.035 8.34341C307.397 6.39028 312.394 5.41372 318.025 5.41372C320.271 5.41372 322.55 5.59276 324.861 5.95083C327.173 6.3089 329.386 6.97622 331.502 7.95278Z" fill="black"/>
<path d="M56.541 133.66C56.541 136.145 56.0768 138.287 55.1484 140.084C54.25 141.881 53.0371 143.408 51.5098 144.666C49.9824 145.923 48.2155 146.957 46.209 147.765C44.2324 148.544 42.166 149.158 40.0098 149.607C37.8535 150.056 35.6823 150.356 33.4961 150.506C31.3398 150.655 29.3184 150.73 27.4316 150.73C25.5749 150.73 23.6432 150.655 21.6367 150.506C19.6602 150.386 17.6836 150.161 15.707 149.832C13.7305 149.502 11.7839 149.068 9.86719 148.529C7.95052 147.96 6.13867 147.256 4.43164 146.418L4.3418 88.5583C6.01888 87.8694 7.80078 87.2555 9.6875 86.7165C11.5742 86.1474 13.4909 85.6833 15.4375 85.3239C17.4141 84.9346 19.3757 84.65 21.3223 84.4704C23.2689 84.2607 25.1556 84.1559 26.9824 84.1559C29.1087 84.1559 31.25 84.2907 33.4062 84.5602C35.5924 84.8297 37.6888 85.279 39.6953 85.9079C41.7018 86.5368 43.5736 87.3603 45.3105 88.3786C47.0475 89.3668 48.5599 90.5947 49.8477 92.0622C51.1654 93.5296 52.1836 95.2366 52.9023 97.1833C53.651 99.1299 54.0254 101.376 54.0254 103.922C54.0254 105.599 53.7858 107.171 53.3066 108.638C52.8275 110.106 52.1387 111.423 51.2402 112.591C50.3418 113.759 49.2487 114.763 47.9609 115.601C46.6732 116.41 45.2207 117.009 43.6035 117.398C45.5501 117.907 47.3171 118.656 48.9043 119.644C50.5215 120.632 51.8841 121.83 52.9922 123.238C54.1302 124.645 54.9987 126.233 55.5977 128C56.2266 129.767 56.541 131.653 56.541 133.66ZM33.7207 108.054C33.7207 107.186 33.541 106.452 33.1816 105.853C32.8223 105.224 32.373 104.715 31.834 104.326C31.3249 103.937 30.7559 103.652 30.127 103.472C29.528 103.293 28.9889 103.203 28.5098 103.203C27.9108 103.203 27.3268 103.293 26.7578 103.472C26.1888 103.652 25.6348 103.862 25.0957 104.101L24.8262 114.074C25.515 114.074 26.3685 114.014 27.3867 113.894C28.4049 113.774 29.3783 113.52 30.3066 113.131C31.265 112.711 32.0736 112.112 32.7324 111.334C33.3913 110.525 33.7207 109.432 33.7207 108.054ZM27.3418 122.699C26.4733 122.699 25.6348 122.789 24.8262 122.968L24.6465 133.211C25.0957 133.3 25.5299 133.39 25.9492 133.48C26.3984 133.54 26.8327 133.57 27.252 133.57C27.8809 133.57 28.5697 133.51 29.3184 133.39C30.0671 133.241 30.7708 132.971 31.4297 132.582C32.0885 132.162 32.6276 131.608 33.0469 130.92C33.4961 130.231 33.7207 129.317 33.7207 128.179C33.7207 127.041 33.4961 126.113 33.0469 125.394C32.6276 124.675 32.1035 124.121 31.4746 123.732C30.8457 123.313 30.1569 123.043 29.4082 122.923C28.6595 122.774 27.9707 122.699 27.3418 122.699Z" fill="black"/>
<path d="M112.514 86.402C111.166 96.9437 110.013 107.44 109.055 117.892C108.096 128.314 107.183 138.811 106.314 149.382L87.8965 150.73L88.7051 143.812C88.1061 144.501 87.4023 145.1 86.5938 145.609C85.8151 146.118 84.9766 146.537 84.0781 146.867C83.1797 147.166 82.2513 147.391 81.293 147.541C80.3346 147.66 79.4212 147.705 78.5527 147.675C76.5163 147.645 74.5996 147.256 72.8027 146.507C71.0059 145.729 69.3587 144.711 67.8613 143.453C66.3639 142.165 65.0163 140.683 63.8184 139.006C62.6204 137.298 61.6022 135.517 60.7637 133.66C59.9551 131.773 59.3262 129.856 58.877 127.91C58.4577 125.963 58.248 124.076 58.248 122.25C58.248 119.554 58.293 116.769 58.3828 113.894C58.5026 110.989 58.6973 108.084 58.9668 105.179C59.2363 102.274 59.5807 99.3994 60 96.5543C60.4492 93.7093 61.0033 90.984 61.6621 88.3786C65.3158 88.5583 68.9844 88.723 72.668 88.8727C76.3516 89.0224 80.0202 89.0674 83.6738 89.0075C82.985 91.6129 82.2962 94.2334 81.6074 96.8688C80.9486 99.4743 80.3496 102.11 79.8105 104.775C79.2715 107.41 78.8372 110.061 78.5078 112.726C78.1784 115.392 78.0137 118.087 78.0137 120.812C78.0137 121.441 78.0436 122.34 78.1035 123.507C78.1634 124.675 78.3132 125.828 78.5527 126.966C78.8223 128.104 79.2116 129.108 79.7207 129.976C80.2598 130.815 81.0085 131.234 81.9668 131.234C83.1048 131.234 84.123 130.755 85.0215 129.797C85.9199 128.808 86.7135 127.491 87.4023 125.843C88.0911 124.196 88.6751 122.295 89.1543 120.138C89.6634 117.982 90.0827 115.736 90.4121 113.4C90.7715 111.034 91.056 108.653 91.2656 106.257C91.4753 103.862 91.625 101.616 91.7148 99.5192C91.8346 97.3929 91.9095 95.4912 91.9395 93.8141C91.9993 92.137 92.0293 90.8343 92.0293 89.9059C92.0293 89.3069 92.0143 88.723 91.9844 88.154C91.9544 87.5849 91.9095 87.001 91.8496 86.402C93.7962 86.4619 95.7279 86.5068 97.6445 86.5368C99.5612 86.5667 101.493 86.5817 103.439 86.5817C104.937 86.5817 106.434 86.5817 107.932 86.5817C109.459 86.5517 110.986 86.4918 112.514 86.402Z" fill="black"/>
<path d="M162.781 86.3122L162.332 105.359L148.945 105.898L147.328 147.586L128.371 148.574L126.664 106.886L113.277 107.605L113.816 86.402L162.781 86.3122Z" fill="black"/>
<path d="M213.633 86.3122L213.184 105.359L199.797 105.898L198.18 147.586L179.223 148.574L177.516 106.886L164.129 107.605L164.668 86.402L213.633 86.3122Z" fill="black"/>
<path d="M262.421 125.604C263.921 127.104 263.904 129.553 262.383 131.074C260.862 132.595 258.413 132.612 256.913 131.112C255.413 129.612 255.429 127.162 256.95 125.641C258.471 124.12 260.921 124.104 262.421 125.604Z" fill="black"/>
<path fill-rule="evenodd" clip-rule="evenodd" d="M274.775 114.242C274.775 116.967 274.461 119.602 273.832 122.148C273.203 124.664 272.29 127.029 271.092 129.246C269.924 131.462 268.486 133.498 266.779 135.355C265.102 137.182 263.201 138.754 261.074 140.072C258.978 141.39 256.687 142.423 254.201 143.171C251.715 143.89 249.08 144.25 246.295 144.25C243.6 144.25 241.024 143.905 238.568 143.216C236.143 142.528 233.867 141.569 231.74 140.341C229.614 139.084 227.682 137.586 225.945 135.849C224.238 134.082 222.771 132.136 221.543 130.009C220.345 127.853 219.402 125.547 218.713 123.091C218.054 120.636 217.725 118.075 217.725 115.41C217.725 112.804 218.039 110.259 218.668 107.773C219.297 105.257 220.195 102.891 221.363 100.675C222.561 98.4592 223.999 96.4227 225.676 94.5659C227.353 92.7092 229.225 91.107 231.291 89.7593C233.387 88.4116 235.648 87.3635 238.074 86.6148C240.5 85.8661 243.061 85.4917 245.756 85.4917C250.098 85.4917 254.051 86.1656 257.615 87.5132C261.209 88.8609 264.264 90.7925 266.779 93.3081C269.325 95.7938 271.286 98.8185 272.664 102.382C274.072 105.916 274.775 109.869 274.775 114.242ZM254.83 115.41C254.83 114.122 254.635 112.879 254.246 111.681C253.887 110.453 253.348 109.375 252.629 108.447C251.91 107.488 251.012 106.725 249.934 106.156C248.885 105.557 247.673 105.257 246.295 105.257C244.887 105.257 243.63 105.512 242.521 106.021C241.752 106.375 241.054 106.822 240.429 107.364L253.892 120.035C254.004 119.773 254.107 119.504 254.201 119.228C254.62 118 254.83 116.727 254.83 115.41ZM251.586 123.358C250.982 123.905 250.296 124.37 249.529 124.753C248.421 125.293 247.163 125.562 245.756 125.562C244.348 125.562 243.105 125.248 242.027 124.619C240.979 123.99 240.096 123.166 239.377 122.148C238.658 121.13 238.119 119.992 237.76 118.734C237.4 117.476 237.221 116.218 237.221 114.96C237.221 113.643 237.43 112.4 237.85 111.232C237.92 111.031 237.995 110.834 238.076 110.643L251.586 123.358ZM228.263 101.75C230.217 100.218 232.421 100.677 233.798 102.052C235.171 103.421 235.599 105.569 234.021 107.463L235.619 108.788C238.012 105.918 237.283 102.555 235.285 100.562C233.292 98.5732 229.913 97.8175 226.987 100.111L228.263 101.75ZM263.91 124.115C266.221 126.426 266.195 130.2 263.852 132.543C261.509 134.886 257.736 134.912 255.424 132.6C253.113 130.289 253.139 126.516 255.482 124.173C257.825 121.83 261.598 121.804 263.91 124.115Z" fill="black"/>
<path d="M333 125.921C333 129.306 332.955 132.66 332.865 135.984C332.805 139.278 332.701 142.602 332.551 145.957L306.676 145.507C307.574 140.207 308.353 134.921 309.012 129.65C309.671 124.349 310 119.004 310 113.613C310 113.224 309.985 112.595 309.955 111.726C309.925 110.858 309.865 109.884 309.775 108.806C309.686 107.698 309.551 106.575 309.371 105.437C309.221 104.269 308.997 103.206 308.697 102.248C308.428 101.289 308.083 100.511 307.664 99.9117C307.275 99.2828 306.796 98.9683 306.227 98.9683C305.208 98.9683 304.34 99.2678 303.621 99.8668C302.932 100.466 302.348 101.244 301.869 102.203C301.42 103.131 301.061 104.179 300.791 105.347C300.521 106.515 300.312 107.683 300.162 108.851C300.042 110.019 299.952 111.127 299.893 112.175C299.863 113.194 299.848 114.032 299.848 114.691C299.698 119.992 299.578 125.263 299.488 130.504C299.398 135.714 299.279 140.985 299.129 146.316L276.219 147.304C276.818 136.733 277.387 126.221 277.926 115.769C278.495 105.317 278.944 94.8056 279.273 84.234L300.477 83.1558L300.297 90.3433C301.135 89.3251 302.034 88.3668 302.992 87.4683C303.98 86.5699 305.029 85.8062 306.137 85.1773C307.245 84.5185 308.413 84.0094 309.641 83.65C310.898 83.2607 312.216 83.066 313.594 83.066C316.139 83.066 318.37 83.4853 320.287 84.3238C322.204 85.1624 323.851 86.3004 325.229 87.7379C326.606 89.1754 327.759 90.8824 328.688 92.859C329.616 94.8056 330.365 96.887 330.934 99.1031C331.503 101.319 331.937 103.64 332.236 106.066C332.536 108.462 332.73 110.828 332.82 113.164C332.94 115.5 333 117.761 333 119.947C333 122.133 333 124.125 333 125.921Z" fill="black"/>
<path d="M76.2969 156.3L72.1406 187.621C70.7057 187.225 69.2708 186.953 67.8359 186.804C66.401 186.656 64.9661 186.582 63.5312 186.582C59.8698 186.582 56.3815 187.076 53.0664 188.066C49.7513 189.006 46.8073 190.466 44.2344 192.445C41.7109 194.424 39.6823 196.898 38.1484 199.867C36.6641 202.836 35.9219 206.324 35.9219 210.332C35.9219 212.905 36.3177 215.131 37.1094 217.011C37.9505 218.892 39.1133 220.45 40.5977 221.687C42.082 222.924 43.8385 223.839 45.8672 224.433C47.8958 225.027 50.1224 225.324 52.5469 225.324C54.3776 225.324 56.2826 225.126 58.2617 224.73C60.2409 224.334 62.1953 223.815 64.125 223.171C66.0547 222.528 67.9349 221.786 69.7656 220.945C71.5964 220.104 73.2786 219.238 74.8125 218.347L71.8438 253.23C69.9141 254.22 67.8112 255.11 65.5352 255.902C63.3086 256.644 61.0078 257.312 58.6328 257.906C56.2578 258.45 53.8828 258.871 51.5078 259.168C49.1328 259.464 46.8568 259.613 44.6797 259.613C38.3958 259.613 32.5326 258.45 27.0898 256.125C21.6471 253.799 16.9219 250.608 12.9141 246.55C8.90625 242.493 5.73958 237.718 3.41406 232.226C1.13802 226.684 0 220.722 0 214.339C0 205.879 1.21224 197.912 3.63672 190.441C6.0612 182.92 9.6237 176.339 14.3242 170.699C19.0247 165.058 24.8385 160.605 31.7656 157.339C38.7422 154.074 46.7578 152.441 55.8125 152.441C59.2266 152.441 62.7148 152.713 66.2773 153.257C69.8893 153.802 73.2292 154.816 76.2969 156.3Z" fill="black"/>
<path d="M146.211 218.347L143.094 251.3L80.6016 256.199C80.8984 238.931 81.2201 221.761 81.5664 204.691C81.9622 187.621 82.4323 170.451 82.9766 153.183H121.57C120.432 164.019 119.344 174.855 118.305 185.691C117.266 196.477 116.523 207.363 116.078 218.347C118.404 218.446 120.704 218.496 122.98 218.496C125.257 218.496 127.557 218.496 129.883 218.496C132.654 218.496 135.375 218.471 138.047 218.421C140.719 218.372 143.44 218.347 146.211 218.347Z" fill="black"/>
<path d="M238.168 156.152C235.941 173.569 234.036 190.911 232.453 208.179C230.87 225.398 229.361 242.74 227.926 260.207L197.496 262.433L198.832 251.004C197.842 252.142 196.68 253.131 195.344 253.972C194.057 254.813 192.672 255.506 191.188 256.05C189.703 256.545 188.169 256.916 186.586 257.164C185.003 257.362 183.493 257.436 182.059 257.386C178.694 257.337 175.527 256.694 172.559 255.457C169.59 254.17 166.868 252.488 164.395 250.41C161.921 248.282 159.694 245.833 157.715 243.062C155.736 240.242 154.053 237.298 152.668 234.23C151.332 231.113 150.293 227.946 149.551 224.73C148.858 221.514 148.512 218.397 148.512 215.379C148.512 210.925 148.586 206.324 148.734 201.574C148.932 196.774 149.254 191.975 149.699 187.175C150.145 182.376 150.714 177.626 151.406 172.925C152.148 168.225 153.064 163.722 154.152 159.418C160.189 159.714 166.25 159.987 172.336 160.234C178.422 160.481 184.483 160.556 190.52 160.457C189.382 164.761 188.243 169.091 187.105 173.445C186.017 177.75 185.027 182.104 184.137 186.507C183.246 190.862 182.529 195.24 181.984 199.644C181.44 204.048 181.168 208.501 181.168 213.004C181.168 214.043 181.217 215.527 181.316 217.457C181.415 219.386 181.663 221.291 182.059 223.171C182.504 225.052 183.147 226.709 183.988 228.144C184.879 229.53 186.116 230.222 187.699 230.222C189.579 230.222 191.262 229.431 192.746 227.847C194.23 226.214 195.542 224.037 196.68 221.316C197.818 218.595 198.783 215.453 199.574 211.89C200.415 208.328 201.108 204.617 201.652 200.757C202.246 196.849 202.716 192.915 203.062 188.957C203.409 184.998 203.656 181.287 203.805 177.824C204.003 174.311 204.126 171.169 204.176 168.398C204.275 165.627 204.324 163.475 204.324 161.941C204.324 160.951 204.299 159.987 204.25 159.046C204.201 158.106 204.126 157.142 204.027 156.152C207.243 156.251 210.435 156.325 213.602 156.375C216.768 156.424 219.96 156.449 223.176 156.449C225.65 156.449 228.124 156.449 230.598 156.449C233.121 156.399 235.645 156.3 238.168 156.152Z" fill="black"/>
<path d="M238.748 16.2123L240.675 11.3383L245.14 8.59485L240.266 6.66851L237.523 2.20303L235.597 7.07706L231.131 9.82048L236.005 11.7468L238.748 16.2123ZM218.552 27.3902L221.762 19.2674L229.205 14.6945L221.081 11.4835L216.509 4.04147L213.3 12.1643L205.857 16.7372L213.981 19.9482L218.552 27.3902ZM271.553 41.5753L268.343 49.6981L260.9 54.271L269.024 57.482L273.595 64.9241L276.805 56.8013L284.248 52.2283L276.124 49.0174L271.553 41.5753ZM279.384 12.3969L265.919 1.098C264.928 0.264146 263.693 -0.0865936 262.498 0.0179677C261.303 0.122529 260.148 0.682392 259.316 1.67571L210.96 59.3048C209.296 61.2886 209.554 64.2451 211.538 65.9082L225.003 77.207C225.995 78.0393 227.23 78.39 228.423 78.2856C229.619 78.1811 230.774 77.6212 231.606 76.6293L279.962 18.9987C281.626 17.0179 281.368 14.0599 279.384 12.3969ZM259.886 30.1646L251.807 23.3853L263.339 9.64217L271.418 16.4215L259.886 30.1646Z" fill="black"/>
<path fill-rule="evenodd" clip-rule="evenodd" d="M262.581 169.655C261.151 171.943 260.751 174.57 261.186 177.038C258.778 177.728 256.592 179.239 255.162 181.527C253.732 183.816 253.332 186.443 253.767 188.91C251.359 189.601 249.173 191.112 247.743 193.4C246.313 195.689 245.914 198.316 246.349 200.783C243.94 201.474 241.754 202.984 240.324 205.273C237.256 210.182 238.755 216.674 243.664 219.741L233.278 236.363C228.778 243.564 230.973 253.082 238.177 257.584L274.388 280.211C281.589 284.711 291.107 282.516 295.609 275.312L305.995 258.69L314.534 264.026L340.637 300.724C340.84 300.934 341.065 301.116 341.302 301.264C342.632 302.095 344.405 301.952 345.584 300.811C346.974 299.472 347.014 297.256 345.671 295.864L319.272 258.856C319.074 258.65 318.852 258.47 318.609 258.318L309.705 252.754L322.181 232.787C323.444 240.456 327.838 247.576 334.932 252.009C336.574 253.035 338.729 252.537 339.755 250.896C340.781 249.254 340.283 247.099 338.642 246.073C328.82 239.936 325.824 226.957 331.961 217.136L337.897 220.845C339.539 221.871 341.695 221.373 342.72 219.732C343.746 218.09 343.248 215.934 341.607 214.909L323.056 203.317C321.827 202.549 321.453 200.929 322.221 199.7C322.989 198.471 324.609 198.097 325.838 198.865L346.615 211.848C347.12 212.163 347.503 212.646 347.703 213.204L348.608 215.784L363.895 260.92C364.165 261.716 364.69 262.35 365.352 262.763C366.213 263.301 367.296 263.462 368.338 263.11C370.166 262.49 371.145 260.506 370.526 258.671L354.567 211.558C354.552 211.516 354.309 210.894 354.309 210.894C353.585 208.836 352.174 207.067 350.324 205.911L342.162 200.811L346.057 194.578C350.557 187.377 348.359 177.857 341.158 173.357L304.947 150.73C297.746 146.23 288.226 148.428 283.726 155.629L277.049 166.314C272.14 163.247 265.648 164.745 262.581 169.655ZM264.815 261.848C263.789 263.489 261.633 263.987 259.992 262.961C258.351 261.935 257.853 259.78 258.879 258.138C259.904 256.497 262.06 255.999 263.701 257.025C265.343 258.05 265.84 260.206 264.815 261.848ZM242.182 235.323L288.55 161.119L339.008 192.649L336.226 197.101L329.548 192.928C325.045 190.115 319.098 191.488 316.285 195.99C316.186 196.147 316.093 196.306 316.005 196.467C315.37 195.494 314.663 194.553 313.883 193.643C312.545 192.081 311.04 190.621 309.366 189.263C307.717 187.921 306.011 186.699 304.248 185.596C302.733 184.648 301.113 183.756 299.39 182.921C297.682 182.06 295.908 181.278 294.066 180.576C292.265 179.864 290.435 179.255 288.575 178.749C286.73 178.217 284.934 177.802 283.186 177.503L253.249 225.54C254.229 227.121 255.367 228.644 256.662 230.111C257.972 231.552 259.361 232.922 260.83 234.22C262.298 235.519 263.821 236.73 265.398 237.855C266.985 239.02 268.548 240.084 270.088 241.047C271.653 242.026 273.369 243.012 275.235 244.006C277.126 245.016 279.082 245.894 281.104 246.64C283.125 247.386 285.157 247.948 287.201 248.328C289.284 248.698 291.286 248.757 293.205 248.506C295.124 248.255 296.923 247.618 298.6 246.593C300.302 245.584 301.797 244.049 303.087 241.987C304.128 240.323 304.845 238.595 305.24 236.803C305.66 235.027 305.763 233.26 305.549 231.502C305.36 229.76 304.851 228.06 304.023 226.401C303.219 224.758 302.142 223.221 300.791 221.789C302.334 222.305 303.85 222.561 305.337 222.559C306.84 222.531 308.267 222.266 309.618 221.763C310.969 221.261 312.224 220.525 313.383 219.556C314.541 218.588 315.556 217.408 316.425 216.017C317.746 213.906 318.6 211.848 318.989 209.845C319.04 209.6 319.086 209.355 319.125 209.111C319.198 209.159 319.272 209.207 319.347 209.253L326.025 213.426L292.64 266.853L242.182 235.323ZM251.083 207.869L247.374 213.805C245.735 212.781 245.238 210.618 246.26 208.982C247.282 207.347 249.445 206.845 251.083 207.869ZM258.502 195.996L254.793 201.932C253.154 200.909 252.657 198.745 253.679 197.11C254.701 195.474 256.864 194.972 258.502 195.996ZM265.921 184.123L262.211 190.06C260.573 189.036 260.076 186.872 261.098 185.237C262.12 183.601 264.282 183.1 265.921 184.123ZM273.34 172.251L269.63 178.187C267.992 177.163 267.495 175 268.517 173.364C269.539 171.729 271.701 171.227 273.34 172.251ZM298.135 206.807C298.123 207.491 297.891 208.192 297.441 208.913C296.726 210.055 295.886 210.791 294.92 211.12C293.97 211.424 292.988 211.501 291.976 211.352C291.004 211.194 290.065 210.9 289.158 210.471C288.251 210.042 287.512 209.649 286.941 209.292L292.337 201.16C292.909 201.241 293.477 201.355 294.042 201.501C294.607 201.647 295.138 201.875 295.635 202.186C296.032 202.434 296.433 202.788 296.837 203.248C297.265 203.723 297.589 204.255 297.81 204.842C298.055 205.444 298.163 206.099 298.135 206.807ZM282.327 216.669C283.091 216.94 283.833 217.3 284.554 217.751C285.075 218.077 285.608 218.496 286.151 219.009C286.71 219.496 287.141 220.077 287.446 220.751C287.765 221.4 287.913 222.132 287.888 222.945C287.887 223.774 287.592 224.661 287.002 225.605C286.411 226.549 285.751 227.19 285.022 227.528C284.316 227.882 283.582 228.062 282.818 228.068C282.07 228.049 281.346 227.908 280.647 227.644C279.964 227.355 279.362 227.047 278.84 226.721C278.493 226.503 278.148 226.253 277.806 225.97C277.505 225.678 277.192 225.379 276.866 225.071L282.327 216.669Z" fill="black"/>
</svg>