<?xml version="1.0" encoding="UTF-8" standalone="no"?>
<!-- Created with Inkscape (http://www.inkscape.org/) -->

<svg
   xmlns:dc="http://purl.org/dc/elements/1.1/"
   xmlns:cc="http://creativecommons.org/ns#"
   xmlns:rdf="http://www.w3.org/1999/02/22-rdf-syntax-ns#"
   xmlns:svg="http://www.w3.org/2000/svg"
   xmlns="http://www.w3.org/2000/svg"
   xmlns:sodipodi="http://sodipodi.sourceforge.net/DTD/sodipodi-0.dtd"
   xmlns:inkscape="http://www.inkscape.org/namespaces/inkscape"
   width="236.54492"
   height="155.28738"
   viewBox="0 0 236.54492 155.28739"
   id="svg10612"
   version="1.1"
   inkscape:version="0.91 r13725"
   sodipodi:docname="acrididae-cidaridae-8.svg"
   inkscape:export-filename="/home/mjd/src/perl/TALKS/anagrams/pic/acrididae-cidaridae-8-sm.png"
   inkscape:export-xdpi="180"
   inkscape:export-ydpi="180">
  <defs
     id="defs10614">
    <marker
       inkscape:stockid="Arrow1Lend"
       orient="auto"
       refY="0"
       refX="0"
       id="Arrow1Lend"
       style="overflow:visible"
       inkscape:isstock="true">
      <path
         id="path4322"
         d="M 0,0 5,-5 -12.5,0 5,5 0,0 Z"
         style="fill-rule:evenodd;stroke:#000000;stroke-width:1pt"
         transform="matrix(-0.8,0,0,-0.8,-10,0)"
         inkscape:connector-curvature="0" />
    </marker>
    <marker
       inkscape:stockid="Arrow1Lstart"
       orient="auto"
       refY="0"
       refX="0"
       id="Arrow1Lstart"
       style="overflow:visible"
       inkscape:isstock="true">
      <path
         id="path4319"
         d="M 0,0 5,-5 -12.5,0 5,5 0,0 Z"
         style="fill-rule:evenodd;stroke:#000000;stroke-width:1pt"
         transform="matrix(0.8,0,0,0.8,10,0)"
         inkscape:connector-curvature="0" />
    </marker>
    <marker
       inkscape:isstock="true"
       style="overflow:visible"
       id="marker4522"
       refX="0"
       refY="0"
       orient="auto"
       inkscape:stockid="Arrow1Lstart"
       inkscape:collect="always">
      <path
         transform="matrix(0.8,0,0,0.8,10,0)"
         style="fill:#71c837;fill-opacity:1;fill-rule:evenodd;stroke:#71c837;stroke-width:1pt;stroke-opacity:1"
         d="M 0,0 5,-5 -12.5,0 5,5 0,0 Z"
         id="path4524"
         inkscape:connector-curvature="0" />
    </marker>
    <marker
       inkscape:isstock="true"
       style="overflow:visible"
       id="marker4482"
       refX="0"
       refY="0"
       orient="auto"
       inkscape:stockid="Arrow1Lend"
       inkscape:collect="always">
      <path
         transform="matrix(-0.8,0,0,-0.8,-10,0)"
         style="fill:#71c837;fill-opacity:1;fill-rule:evenodd;stroke:#71c837;stroke-width:1pt;stroke-opacity:1"
         d="M 0,0 5,-5 -12.5,0 5,5 0,0 Z"
         id="path4484"
         inkscape:connector-curvature="0" />
    </marker>
    <marker
       inkscape:stockid="Arrow1Lstart"
       orient="auto"
       refY="0"
       refX="0"
       id="marker4588"
       style="overflow:visible"
       inkscape:isstock="true"
       inkscape:collect="always">
      <path
         id="path4590"
         d="M 0,0 5,-5 -12.5,0 5,5 0,0 Z"
         style="fill:#ffcc00;fill-opacity:1;fill-rule:evenodd;stroke:#ffcc00;stroke-width:1pt;stroke-opacity:1"
         transform="matrix(0.8,0,0,0.8,10,0)"
         inkscape:connector-curvature="0" />
    </marker>
    <marker
       inkscape:stockid="Arrow1Lend"
       orient="auto"
       refY="0"
       refX="0"
       id="marker4646"
       style="overflow:visible"
       inkscape:isstock="true"
       inkscape:collect="always">
      <path
         id="path4648"
         d="M 0,0 5,-5 -12.5,0 5,5 0,0 Z"
         style="fill:#ffcc00;fill-opacity:1;fill-rule:evenodd;stroke:#ffcc00;stroke-width:1pt;stroke-opacity:1"
         transform="matrix(-0.8,0,0,-0.8,-10,0)"
         inkscape:connector-curvature="0" />
    </marker>
    <marker
       inkscape:isstock="true"
       style="overflow:visible"
       id="marker4712"
       refX="0"
       refY="0"
       orient="auto"
       inkscape:stockid="Arrow1Lstart"
       inkscape:collect="always">
      <path
         transform="matrix(0.8,0,0,0.8,10,0)"
         style="fill:#ff7f2a;fill-opacity:1;fill-rule:evenodd;stroke:#ff7f2a;stroke-width:1pt;stroke-opacity:1"
         d="M 0,0 5,-5 -12.5,0 5,5 0,0 Z"
         id="path4714"
         inkscape:connector-curvature="0" />
    </marker>
    <marker
       inkscape:isstock="true"
       style="overflow:visible"
       id="marker4782"
       refX="0"
       refY="0"
       orient="auto"
       inkscape:stockid="Arrow1Lend"
       inkscape:collect="always">
      <path
         transform="matrix(-0.8,0,0,-0.8,-10,0)"
         style="fill:#ff7f2a;fill-opacity:1;fill-rule:evenodd;stroke:#ff7f2a;stroke-width:1pt;stroke-opacity:1"
         d="M 0,0 5,-5 -12.5,0 5,5 0,0 Z"
         id="path4784"
         inkscape:connector-curvature="0" />
    </marker>
    <marker
       inkscape:stockid="Arrow1Lstart"
       orient="auto"
       refY="0"
       refX="0"
       id="marker4860"
       style="overflow:visible"
       inkscape:isstock="true">
      <path
         id="path4862"
         d="M 0,0 5,-5 -12.5,0 5,5 0,0 Z"
         style="fill:#aa0000;fill-opacity:1;fill-rule:evenodd;stroke:#aa0000;stroke-width:1pt;stroke-opacity:1"
         transform="matrix(0.8,0,0,0.8,10,0)"
         inkscape:connector-curvature="0" />
    </marker>
    <marker
       inkscape:stockid="Arrow1Lend"
       orient="auto"
       refY="0"
       refX="0"
       id="marker4942"
       style="overflow:visible"
       inkscape:isstock="true">
      <path
         id="path4944"
         d="M 0,0 5,-5 -12.5,0 5,5 0,0 Z"
         style="fill:#aa0000;fill-opacity:1;fill-rule:evenodd;stroke:#aa0000;stroke-width:1pt;stroke-opacity:1"
         transform="matrix(-0.8,0,0,-0.8,-10,0)"
         inkscape:connector-curvature="0" />
    </marker>
    <marker
       inkscape:stockid="Arrow1Lstart"
       orient="auto"
       refY="0"
       refX="0"
       id="Arrow1Lstart-7"
       style="overflow:visible"
       inkscape:isstock="true"
       inkscape:collect="always">
      <path
         id="path4166-5"
         d="M 0,0 5,-5 -12.5,0 5,5 0,0 Z"
         style="fill:#0066ff;fill-opacity:1;fill-rule:evenodd;stroke:#0066ff;stroke-width:1pt;stroke-opacity:1"
         transform="matrix(0.8,0,0,0.8,10,0)"
         inkscape:connector-curvature="0" />
    </marker>
    <marker
       inkscape:stockid="Arrow1Lend"
       orient="auto"
       refY="0"
       refX="0"
       id="Arrow1Lend-9"
       style="overflow:visible"
       inkscape:isstock="true"
       inkscape:collect="always">
      <path
         id="path4169-6"
         d="M 0,0 5,-5 -12.5,0 5,5 0,0 Z"
         style="fill:#0066ff;fill-opacity:1;fill-rule:evenodd;stroke:#0066ff;stroke-width:1pt;stroke-opacity:1"
         transform="matrix(-0.8,0,0,-0.8,-10,0)"
         inkscape:connector-curvature="0" />
    </marker>
    <marker
       inkscape:stockid="Arrow1Lstart"
       orient="auto"
       refY="0"
       refX="0"
       id="Arrow1Lstart-7-1"
       style="overflow:visible"
       inkscape:isstock="true"
       inkscape:collect="always">
      <path
         id="path4166-5-7"
         d="M 0,0 5,-5 -12.5,0 5,5 0,0 Z"
         style="fill:#000080;fill-opacity:1;fill-rule:evenodd;stroke:#000080;stroke-width:1pt;stroke-opacity:1"
         transform="matrix(0.8,0,0,0.8,10,0)"
         inkscape:connector-curvature="0" />
    </marker>
    <marker
       inkscape:stockid="Arrow1Lend"
       orient="auto"
       refY="0"
       refX="0"
       id="Arrow1Lend-9-8"
       style="overflow:visible"
       inkscape:isstock="true"
       inkscape:collect="always">
      <path
         id="path4169-6-5"
         d="M 0,0 5,-5 -12.5,0 5,5 0,0 Z"
         style="fill:#000080;fill-opacity:1;fill-rule:evenodd;stroke:#000080;stroke-width:1pt;stroke-opacity:1"
         transform="matrix(-0.8,0,0,-0.8,-10,0)"
         inkscape:connector-curvature="0" />
    </marker>
    <marker
       inkscape:stockid="Arrow1Lstart"
       orient="auto"
       refY="0"
       refX="0"
       id="Arrow1Lstart-7-1-7"
       style="overflow:visible"
       inkscape:isstock="true"
       inkscape:collect="always">
      <path
         id="path4166-5-7-5"
         d="M 0,0 5,-5 -12.5,0 5,5 0,0 Z"
         style="fill:#aa0088;fill-opacity:1;fill-rule:evenodd;stroke:#aa0088;stroke-width:1pt;stroke-opacity:1"
         transform="matrix(0.8,0,0,0.8,10,0)"
         inkscape:connector-curvature="0" />
    </marker>
    <marker
       inkscape:stockid="Arrow1Lend"
       orient="auto"
       refY="0"
       refX="0"
       id="Arrow1Lend-9-8-3"
       style="overflow:visible"
       inkscape:isstock="true"
       inkscape:collect="always">
      <path
         id="path4169-6-5-8"
         d="M 0,0 5,-5 -12.5,0 5,5 0,0 Z"
         style="fill:#aa0088;fill-opacity:1;fill-rule:evenodd;stroke:#aa0088;stroke-width:1pt;stroke-opacity:1"
         transform="matrix(-0.8,0,0,-0.8,-10,0)"
         inkscape:connector-curvature="0" />
    </marker>
    <marker
       inkscape:stockid="Arrow1Lstart"
       orient="auto"
       refY="0"
       refX="0"
       id="marker4860-3"
       style="overflow:visible"
       inkscape:isstock="true">
      <path
         id="path4862-1"
         d="M 0,0 5,-5 -12.5,0 5,5 0,0 Z"
         style="fill:#d42aff;fill-opacity:1;fill-rule:evenodd;stroke:#d42aff;stroke-width:1pt;stroke-opacity:1"
         transform="matrix(0.8,0,0,0.8,10,0)"
         inkscape:connector-curvature="0" />
    </marker>
    <marker
       inkscape:stockid="Arrow1Lend"
       orient="auto"
       refY="0"
       refX="0"
       id="marker4942-8"
       style="overflow:visible"
       inkscape:isstock="true">
      <path
         id="path4944-9"
         d="M 0,0 5,-5 -12.5,0 5,5 0,0 Z"
         style="fill:#d42aff;fill-opacity:1;fill-rule:evenodd;stroke:#d42aff;stroke-width:1pt;stroke-opacity:1"
         transform="matrix(-0.8,0,0,-0.8,-10,0)"
         inkscape:connector-curvature="0" />
    </marker>
    <marker
       inkscape:stockid="Arrow1Lstart"
       orient="auto"
       refY="0"
       refX="0"
       id="marker4860-4"
       style="overflow:visible"
       inkscape:isstock="true">
      <path
         id="path4862-3"
         d="M 0,0 5,-5 -12.5,0 5,5 0,0 Z"
         style="fill:#d42aff;fill-opacity:1;fill-rule:evenodd;stroke:#d42aff;stroke-width:1pt;stroke-opacity:1"
         transform="matrix(0.8,0,0,0.8,10,0)"
         inkscape:connector-curvature="0" />
    </marker>
    <marker
       inkscape:stockid="Arrow1Lend"
       orient="auto"
       refY="0"
       refX="0"
       id="marker4942-3"
       style="overflow:visible"
       inkscape:isstock="true">
      <path
         id="path4944-3"
         d="M 0,0 5,-5 -12.5,0 5,5 0,0 Z"
         style="fill:#d42aff;fill-opacity:1;fill-rule:evenodd;stroke:#d42aff;stroke-width:1pt;stroke-opacity:1"
         transform="matrix(-0.8,0,0,-0.8,-10,0)"
         inkscape:connector-curvature="0" />
    </marker>
    <marker
       inkscape:stockid="Arrow1Lstart"
       orient="auto"
       refY="0"
       refX="0"
       id="marker4860-6"
       style="overflow:visible"
       inkscape:isstock="true">
      <path
         id="path4862-0"
         d="M 0,0 5,-5 -12.5,0 5,5 0,0 Z"
         style="fill:#cc00ff;fill-opacity:1;fill-rule:evenodd;stroke:#cc00ff;stroke-width:1pt;stroke-opacity:1"
         transform="matrix(0.8,0,0,0.8,10,0)"
         inkscape:connector-curvature="0" />
    </marker>
    <marker
       inkscape:stockid="Arrow1Lend"
       orient="auto"
       refY="0"
       refX="0"
       id="marker4942-4"
       style="overflow:visible"
       inkscape:isstock="true">
      <path
         id="path4944-8"
         d="M 0,0 5,-5 -12.5,0 5,5 0,0 Z"
         style="fill:#cc00ff;fill-opacity:1;fill-rule:evenodd;stroke:#cc00ff;stroke-width:1pt;stroke-opacity:1"
         transform="matrix(-0.8,0,0,-0.8,-10,0)"
         inkscape:connector-curvature="0" />
    </marker>
  </defs>
  <sodipodi:namedview
     id="base"
     pagecolor="#ffffff"
     bordercolor="#666666"
     borderopacity="1.0"
     inkscape:pageopacity="0.0"
     inkscape:pageshadow="2"
     inkscape:zoom="3.959798"
     inkscape:cx="80.537995"
     inkscape:cy="91.57895"
     inkscape:document-units="px"
     inkscape:current-layer="layer1"
     showgrid="false"
     inkscape:window-width="1920"
     inkscape:window-height="1015"
     inkscape:window-x="0"
     inkscape:window-y="0"
     inkscape:window-maximized="1"
     units="px"
     fit-margin-top="10"
     fit-margin-left="10"
     fit-margin-right="10"
     fit-margin-bottom="10" />
  <metadata
     id="metadata10617">
    <rdf:RDF>
      <cc:Work
         rdf:about="">
        <dc:format>image/svg+xml</dc:format>
        <dc:type
           rdf:resource="http://purl.org/dc/dcmitype/StillImage" />
        <dc:title></dc:title>
      </cc:Work>
    </rdf:RDF>
  </metadata>
  <g
     inkscape:label="Layer 1"
     inkscape:groupmode="layer"
     id="layer1"
     transform="translate(-173.1561,-403.28995)">
    <text
       xml:space="preserve"
       style="font-style:normal;font-variant:normal;font-weight:normal;font-stretch:normal;font-size:36px;line-height:125%;font-family:Serif;-inkscape-font-specification:Serif;text-align:center;letter-spacing:0px;word-spacing:0px;text-anchor:middle;fill:#000000;fill-opacity:1;stroke:none;stroke-width:1px;stroke-linecap:butt;stroke-linejoin:miter;stroke-opacity:1"
       x="292.98422"
       y="440.0087"
       id="text4136"
       sodipodi:linespacing="125%"
       inkscape:export-xdpi="90"
       inkscape:export-ydpi="90"><tspan
         sodipodi:role="line"
         id="tspan4138"
         x="292.98422"
         y="440.0087">ACRIDIDAE</tspan></text>
    <text
       xml:space="preserve"
       style="font-style:normal;font-variant:normal;font-weight:normal;font-stretch:normal;font-size:36px;line-height:125%;font-family:Serif;-inkscape-font-specification:Serif;text-align:center;letter-spacing:0px;word-spacing:0px;text-anchor:middle;fill:#000000;fill-opacity:1;stroke:none;stroke-width:1px;stroke-linecap:butt;stroke-linejoin:miter;stroke-opacity:1"
       x="290.7518"
       y="548.06757"
       id="text4136-3"
       sodipodi:linespacing="125%"
       inkscape:export-xdpi="90"
       inkscape:export-ydpi="90"><tspan
         sodipodi:role="line"
         id="tspan4138-6"
         x="290.7518"
         y="548.06757">CIDARIDAE</tspan></text>
    <path
       style="fill:none;fill-rule:evenodd;stroke:#71c837;stroke-width:1px;stroke-linecap:butt;stroke-linejoin:miter;stroke-opacity:1;marker-start:url(#marker4522);marker-end:url(#marker4482)"
       d="m 272.78117,444.04932 c 0,0 1.51372,21.50462 -5.55584,26.76904 -21.66333,16.13181 -6.61666,2.41287 -26.77775,20.38689 -7.15318,6.3772 -22.21465,26.08014 -22.21465,26.08014"
       id="path4474"
       inkscape:connector-curvature="0"
       sodipodi:nodetypes="cssc"
       inkscape:export-xdpi="90"
       inkscape:export-ydpi="90" />
    <path
       style="fill:none;fill-rule:evenodd;stroke:#ffcc00;stroke-width:1px;stroke-linecap:butt;stroke-linejoin:miter;stroke-opacity:1;marker-start:url(#marker4588);marker-end:url(#marker4646)"
       d="m 253.58827,447.07978 c 0,0 6.98249,17.59646 12.59101,25.08486 5.39901,7.20865 15.46101,10.51137 19.76361,18.42349 3.78394,6.95835 4.15265,23.39632 4.15265,23.39632"
       id="path4580"
       inkscape:connector-curvature="0"
       sodipodi:nodetypes="caac"
       inkscape:export-xdpi="90"
       inkscape:export-ydpi="90" />
    <path
       style="fill:none;fill-rule:evenodd;stroke:#ff7f2a;stroke-width:1px;stroke-linecap:butt;stroke-linejoin:miter;stroke-opacity:1;marker-start:url(#marker4712);marker-end:url(#marker4782)"
       d="m 223.59624,444.87564 c 0,0 -3.66903,21.27524 -10.60661,28.78935 -3.00141,3.25084 -6.64511,2.13928 -12.05003,5.56635 -11.64965,7.38662 -9.841,17.44102 -6.66752,36.45216"
       id="path4704"
       inkscape:connector-curvature="0"
       sodipodi:nodetypes="casc"
       inkscape:export-xdpi="90"
       inkscape:export-ydpi="90" />
    <path
       style="fill:none;fill-rule:evenodd;stroke:#aa0000;stroke-width:1px;stroke-linecap:butt;stroke-linejoin:miter;stroke-opacity:1;marker-start:url(#marker4860);marker-end:url(#marker4942)"
       d="m 197.6089,445.94707 c 0,0 12.31496,13.3932 19.57543,18.785 11.61955,8.62896 28.22899,10.47507 37.83612,21.29986 3.25263,3.66488 4.28748,8.86572 5.63889,13.57578 1.41218,4.92185 2.52538,15.1523 2.52538,15.1523"
       id="path4852"
       inkscape:connector-curvature="0"
       sodipodi:nodetypes="caaac"
       inkscape:export-xdpi="90"
       inkscape:export-ydpi="90" />
    <path
       style="fill:none;fill-rule:evenodd;stroke:#0066ff;stroke-width:1px;stroke-linecap:butt;stroke-linejoin:miter;stroke-opacity:1;marker-start:url(#Arrow1Lstart-7);marker-end:url(#Arrow1Lend-9)"
       d="m 290.6714,445.26052 39.39595,70.71069"
       id="path4160-2"
       inkscape:connector-curvature="0"
       inkscape:export-xdpi="90"
       inkscape:export-ydpi="90"
       sodipodi:nodetypes="cc" />
    <path
       style="fill:#000080;fill-rule:evenodd;stroke:#000080;stroke-width:1px;stroke-linecap:butt;stroke-linejoin:miter;stroke-opacity:1;marker-start:url(#Arrow1Lstart-7-1);marker-end:url(#Arrow1Lend-9-8)"
       d="m 315.92521,446.27067 -5.05076,72.73099"
       id="path4160-2-7"
       inkscape:connector-curvature="0"
       inkscape:export-xdpi="90"
       inkscape:export-ydpi="90"
       sodipodi:nodetypes="cc" />
    <path
       style="fill:#aa0088;fill-rule:evenodd;stroke:#aa0088;stroke-width:1px;stroke-linecap:butt;stroke-linejoin:miter;stroke-opacity:1;marker-start:url(#Arrow1Lstart-7-1-7);marker-end:url(#Arrow1Lend-9-8-3)"
       d="m 372.62446,446.52321 0.25254,69.70053"
       id="path4160-2-7-8"
       inkscape:connector-curvature="0"
       inkscape:export-xdpi="90"
       inkscape:export-ydpi="90"
       sodipodi:nodetypes="cc" />
    <path
       style="fill:none;fill-rule:evenodd;stroke:#cc00ff;stroke-width:1px;stroke-linecap:butt;stroke-linejoin:miter;stroke-opacity:1;marker-start:url(#marker4860-6);marker-end:url(#marker4942-4)"
       d="m 333.12536,446.85848 c 0,0 2.0327,16.87383 1.89776,20.80531 -0.41991,12.23375 -32.53313,2.57387 -34.01098,13.84998 -1.38776,10.5887 -31.07402,9.89414 -39.3129,11.80801 -7.01915,1.63054 -21.46574,22.0971 -21.46574,22.0971"
       id="path4852-8"
       inkscape:connector-curvature="0"
       sodipodi:nodetypes="csssc"
       inkscape:export-xdpi="90"
       inkscape:export-ydpi="90" />
  </g>
</svg>
